<svg id="Layer_1" data-name="Layer 1" xmlns="http://www.w3.org/2000/svg" xmlns:xlink="http://www.w3.org/1999/xlink" viewBox="0 0 372.52 310.35"><defs><style>.cls-1{fill:none;}.cls-2{isolation:isolate;}.cls-3{clip-path:url(#clip-path);}.cls-4{clip-path:url(#clip-path-2);}.cls-5{fill:#231f20;}.cls-6{clip-path:url(#clip-path-3);}.cls-7{clip-path:url(#clip-path-4);}</style><clipPath id="clip-path" transform="translate(-111.98 -265.65)"><polygon class="cls-1" points="92.25 587.53 110.45 338.52 360.16 324.24 341.95 573.25 92.25 587.53"/></clipPath><clipPath id="clip-path-2" transform="translate(-111.98 -265.65)"><polyline class="cls-1" points="92.25 587.53 136.8 347.31 360.16 324.24 315.61 564.47 92.25 587.53"/></clipPath><clipPath id="clip-path-3" transform="translate(-111.98 -265.65)"><polygon class="cls-1" points="234.18 518.45 252.43 268.7 503.45 254.35 485.19 504.09 234.18 518.45"/></clipPath><clipPath id="clip-path-4" transform="translate(-111.98 -265.65)"><polyline class="cls-1" points="234.18 518.45 278.85 277.54 503.45 254.35 458.77 495.25 234.18 518.45"/></clipPath></defs><title>keyvisual03</title><g class="cls-2"><g class="cls-3"><g class="cls-4"><polyline class="cls-5" points="138.61 70.11 135.92 79.92 137.64 79.92 138.65 76.23 153.99 76.23 154.5 74.36 153.7 70.34 151.74 70.33 152.42 74.06 139.24 74.06 140.32 70.11 138.61 70.11"/><path class="cls-5" d="M231.51,341.74h-.11l-.34.06a2.73,2.73,0,0,0-1.42.92,2.42,2.42,0,0,0-.64,1.49,1.36,1.36,0,0,0,.52,1.21,1.46,1.46,0,0,0,1,.27h.08l.34-.06a2.64,2.64,0,0,0,1.36-.9,2.51,2.51,0,0,0,.6-1.51,1.32,1.32,0,0,0-.48-1.21,1.24,1.24,0,0,0-.87-.27m-4.46,6.41a5.89,5.89,0,0,1-1.81-.13,2.07,2.07,0,0,1-1.63-2.36,4.27,4.27,0,0,1,1.89-3.25,16.12,16.12,0,0,1,5.63-2.36,22.12,22.12,0,0,1,3.17-.62l.5,0a6.15,6.15,0,0,1,1.86.13,2.08,2.08,0,0,1,1.68,2.33,4.29,4.29,0,0,1-1.86,3.26,16.22,16.22,0,0,1-5.67,2.37,21.83,21.83,0,0,1-3.23.63l-.53,0m7.71-10.95-.53.05h-.16a21.86,21.86,0,0,0-2.84.54,16.28,16.28,0,0,0-6.83,3.31,6.93,6.93,0,0,0-2.6,5c-.09,2,.68,3.24,2.28,3.81a7.93,7.93,0,0,0,3.12.36l.62-.05a20.35,20.35,0,0,0,2.91-.55,16.62,16.62,0,0,0,6.84-3.3,6.93,6.93,0,0,0,2.6-5c.08-1.95-.67-3.23-2.29-3.8a7.7,7.7,0,0,0-3.12-.37" transform="translate(-111.98 -265.65)"/><path class="cls-5" d="M204.25,352.21h-.06a2.33,2.33,0,0,0-.79.25,3,3,0,0,0-1.26,1.22,2.06,2.06,0,0,0-.3,1.5,1.16,1.16,0,0,0,.84.93,1.29,1.29,0,0,0,.55.08h.12a2.22,2.22,0,0,0,.81-.25,2.76,2.76,0,0,0,1.2-1.19,2.05,2.05,0,0,0,.26-1.5,1.19,1.19,0,0,0-.8-1,1.54,1.54,0,0,0-.57-.07m-5.4,7.39a2,2,0,0,1-2.29-1.65,3.83,3.83,0,0,1,1.18-3.44,19,19,0,0,1,5.3-3.64,16.59,16.59,0,0,1,5.33-1.95c.1,0,.21,0,.31,0a2,2,0,0,1,2.32,1.63,3.77,3.77,0,0,1-1.15,3.43,19,19,0,0,1-5.31,3.66,16.9,16.9,0,0,1-5.35,2l-.34,0m9.91-12.78-.38,0a17.11,17.11,0,0,0-5.79,2,18.74,18.74,0,0,0-6.32,4.82,6.08,6.08,0,0,0-1.46,5.2,3.23,3.23,0,0,0,3.31,2.8c.23,0,.46,0,.71,0l.37,0a17.11,17.11,0,0,0,5.79-2,18.89,18.89,0,0,0,6.33-4.82,6.08,6.08,0,0,0,1.47-5.22,3.23,3.23,0,0,0-3.31-2.78,5.79,5.79,0,0,0-.72,0" transform="translate(-111.98 -265.65)"/><path class="cls-5" d="M178.6,369l-.23,0a2.28,2.28,0,0,0-1.21.54,3.09,3.09,0,0,0-1,1.42,1.73,1.73,0,0,0,.06,1.44,1.19,1.19,0,0,0,1.11.6h.22a2.46,2.46,0,0,0,1.28-.58,2.74,2.74,0,0,0,1-1.37,1.75,1.75,0,0,0-.1-1.43,1.24,1.24,0,0,0-1.07-.64m-5.29,8.34a1.93,1.93,0,0,1-1.93-1,3.21,3.21,0,0,1,.38-3.39,20.13,20.13,0,0,1,4.64-4.71,17.73,17.73,0,0,1,5.39-3.31,4.81,4.81,0,0,1,.77-.16h.14a1.91,1.91,0,0,1,1.91,1,3.22,3.22,0,0,1-.35,3.38,20.48,20.48,0,0,1-4.64,4.72,17.85,17.85,0,0,1-5.44,3.34,3.39,3.39,0,0,1-.73.15h-.14m9.74-14.63-.24,0a6.47,6.47,0,0,0-.71.11,17.6,17.6,0,0,0-6.68,3.7,19.69,19.69,0,0,0-5.4,6c-1,1.94-1.08,3.62-.26,5.05a3.23,3.23,0,0,0,3.19,1.73l.25,0a6.75,6.75,0,0,0,.72-.12,17.6,17.6,0,0,0,6.67-3.69,19.93,19.93,0,0,0,5.41-6c1-1.92,1.09-3.61.26-5.05a3.24,3.24,0,0,0-3.21-1.72" transform="translate(-111.98 -265.65)"/><polyline class="cls-5" points="46.01 118.91 44.45 120.73 48.09 121.18 37.62 133.36 35.19 131.22 33.82 132.8 39.87 138.11 41.23 136.53 38.96 134.53 51.14 120.36 49.99 119.35 46.01 118.91"/><path class="cls-5" d="M137.31,416.89h-.1a1.77,1.77,0,0,0-.67.2,2.76,2.76,0,0,0-1.21,1.16,2.48,2.48,0,0,0-.36,1.58,1.18,1.18,0,0,0,.74,1,1.42,1.42,0,0,0,.62.1h.06a2,2,0,0,0,.74-.23,2.9,2.9,0,0,0,1.26-1.22,2.19,2.19,0,0,0,.32-1.51,1.22,1.22,0,0,0-.78-1,1.34,1.34,0,0,0-.62-.11m-3.64,9.55a2.43,2.43,0,0,1-1-.17c-1-.42-1.42-1.31-1.22-2.69a18.61,18.61,0,0,1,2.49-5.9,20.4,20.4,0,0,1,4-5.27,4.07,4.07,0,0,1,2.12-1h.11a2.34,2.34,0,0,1,1,.18c1,.41,1.42,1.3,1.24,2.66a18.61,18.61,0,0,1-2.5,5.91,20.44,20.44,0,0,1-4,5.31,3.91,3.91,0,0,1-2.1,1h-.14m6.69-17h-.16a6.21,6.21,0,0,0-3,1.32,20.2,20.2,0,0,0-5.07,6.22,17.1,17.1,0,0,0-2.67,7.27q-.15,2.92,2.13,3.84a4.12,4.12,0,0,0,1.85.32h.16a6.16,6.16,0,0,0,3-1.31,20.9,20.9,0,0,0,5.08-6.22c1.67-2.91,2.56-5.33,2.66-7.28s-.61-3.23-2.14-3.85a4.14,4.14,0,0,0-1.83-.31" transform="translate(-111.98 -265.65)"/><path class="cls-5" d="M124.48,445.08h-.09a2.13,2.13,0,0,0-1.1.47,2.79,2.79,0,0,0-1,1.37,2,2,0,0,0,0,1.51,1.19,1.19,0,0,0,1,.71c.09,0,.2,0,.3,0a2.25,2.25,0,0,0,1.14-.52,2.94,2.94,0,0,0,1-1.43,1.82,1.82,0,0,0,0-1.44,1.21,1.21,0,0,0-1.06-.67h-.23m-2.59,9.74h-.42a2,2,0,0,1-1.93-2.06,15.72,15.72,0,0,1,1.15-6,19.19,19.19,0,0,1,2.82-5.78,4.1,4.1,0,0,1,2.67-1.69h.13a2.67,2.67,0,0,1,.4,0,2,2,0,0,1,2,2.05,15.48,15.48,0,0,1-1.15,6,19.06,19.06,0,0,1-2.83,5.83,4,4,0,0,1-2.65,1.64h-.14m4.67-17.42h-.16a6.36,6.36,0,0,0-4,2.27,19.78,19.78,0,0,0-3.77,7c-.29.86-.52,1.67-.7,2.43l-.32,1.74a9.1,9.1,0,0,0,0,3.06,3.27,3.27,0,0,0,3.19,2.85,5.77,5.77,0,0,0,.72,0l.24,0a6.26,6.26,0,0,0,4-2.28,19.68,19.68,0,0,0,3.75-6.93c1-3.06,1.36-5.47,1-7.23a3.27,3.27,0,0,0-3.19-2.86,7.15,7.15,0,0,0-.8,0" transform="translate(-111.98 -265.65)"/><polyline class="cls-5" points="8.29 200.49 6.53 200.81 2.51 203.57 2.28 205.71 5.98 203.21 4.43 217.46 0.7 218.16 0.49 220.02 9.74 218.28 9.94 216.43 6.47 217.08 8.29 200.49"/><path class="cls-5" d="M118.38,501.15h-.09a2.38,2.38,0,0,0-.64.18,2.71,2.71,0,0,0-1.24,1.11,2.19,2.19,0,0,0-.35,1.51,1.32,1.32,0,0,0,.73,1.09,1.4,1.4,0,0,0,.75.17h0a2,2,0,0,0,.58-.16,2.72,2.72,0,0,0,1.24-1.14,2.47,2.47,0,0,0,.36-1.59,1.31,1.31,0,0,0-.72-1,1.51,1.51,0,0,0-.67-.13m-.58,9.35a2.14,2.14,0,0,1-1.81-.81c-.75-.88-1.3-2.53-1.65-5a13.72,13.72,0,0,1,.15-5.74,4.39,4.39,0,0,1,2.47-2.91,3.74,3.74,0,0,1,1.07-.31h.12a2.11,2.11,0,0,1,1.77.79q1.13,1.29,1.65,5a13.65,13.65,0,0,1-.13,5.76,4.41,4.41,0,0,1-2.49,2.9,3.51,3.51,0,0,1-1,.29h-.12m.88-16.7h-.2a6,6,0,0,0-1.77.5,7.25,7.25,0,0,0-4,4.28,14.28,14.28,0,0,0-.56,7.08c.39,2.79,1.19,4.73,2.42,5.83a3.5,3.5,0,0,0,2.64.94h.2a5.65,5.65,0,0,0,1.76-.51,7.13,7.13,0,0,0,4-4.28,14.33,14.33,0,0,0,.55-7.06c-.39-2.8-1.19-4.74-2.41-5.84a3.45,3.45,0,0,0-2.64-.94" transform="translate(-111.98 -265.65)"/><path class="cls-5" d="M125.31,525.62a2.2,2.2,0,0,0-1.08.44,2.73,2.73,0,0,0-1,1.32,1.82,1.82,0,0,0,0,1.45,1.26,1.26,0,0,0,1,.78,1.64,1.64,0,0,0,.38,0h.08a2.11,2.11,0,0,0,1-.4,2.74,2.74,0,0,0,1-1.36,2,2,0,0,0,0-1.52,1.22,1.22,0,0,0-1-.73h-.37m.71,8.71a2.53,2.53,0,0,1-1.45-.36q-1.51-.86-2.95-4a10.94,10.94,0,0,1-1.27-5.16,4.24,4.24,0,0,1,1.86-3.27,3.44,3.44,0,0,1,1.71-.72H124a2.42,2.42,0,0,1,1.39.34q1.48.84,2.94,4a11,11,0,0,1,1.29,5.2,4.26,4.26,0,0,1-1.88,3.26,3.45,3.45,0,0,1-1.68.71H126m-1.45-15.51-.2,0a6,6,0,0,0-2.85,1.18,7.16,7.16,0,0,0-3.1,4.92,11.41,11.41,0,0,0,1.17,6.49q1.65,3.57,4,4.55a4.09,4.09,0,0,0,1.85.32l.21,0a6,6,0,0,0,2.85-1.19,7.15,7.15,0,0,0,3.12-4.91,11.7,11.7,0,0,0-1.18-6.47c-1.1-2.38-2.43-3.91-4-4.55a4.2,4.2,0,0,0-1.87-.34" transform="translate(-111.98 -265.65)"/><polyline class="cls-5" points="22.32 274.82 20.9 276.31 18.99 280.79 20.22 282.08 22.02 277.98 30.19 286.66 27.17 289.82 28.24 290.96 35.73 283.11 34.66 281.97 31.85 284.92 22.32 274.82"/><path class="cls-5" d="M157.57,559.76h-.09a1.71,1.71,0,0,0-.55.14,2.68,2.68,0,0,0-1.27,1.07,2.3,2.3,0,0,0-.42,1.51,1.3,1.3,0,0,0,.7,1.07,1.71,1.71,0,0,0,.81.17h.09a2.34,2.34,0,0,0,.54-.13,2.54,2.54,0,0,0,1.27-1.05,2.24,2.24,0,0,0,.4-1.53,1.38,1.38,0,0,0-.74-1.09,1.36,1.36,0,0,0-.74-.16m2.07,6.87a9.61,9.61,0,0,1-4.79-1.39,8.47,8.47,0,0,1-3.75-3.13,3.25,3.25,0,0,1,.34-3.39,4.07,4.07,0,0,1,3-2h.21a9.58,9.58,0,0,1,4.78,1.4c2,1,3.25,2.08,3.78,3.13a3.24,3.24,0,0,1-.38,3.4,4,4,0,0,1-3,1.94h-.22m-4.15-12-.35,0a4.46,4.46,0,0,0-.51.07A6.76,6.76,0,0,0,150,558a5.51,5.51,0,0,0-.85,5.24,8.6,8.6,0,0,0,4.27,4.14,10.29,10.29,0,0,0,5.34,1.36,2,2,0,0,0,.35,0,4.08,4.08,0,0,0,.52-.07,6.82,6.82,0,0,0,4.61-3.22,5.5,5.5,0,0,0,.84-5.25,8.64,8.64,0,0,0-4.27-4.14,10.4,10.4,0,0,0-5.35-1.36" transform="translate(-111.98 -265.65)"/><path class="cls-5" d="M180.65,567.35h-.08a2.06,2.06,0,0,0-1,.39,2.77,2.77,0,0,0-1.06,1.3,1.89,1.89,0,0,0-.06,1.47,1.19,1.19,0,0,0,1,.75,1.88,1.88,0,0,0,.41,0H180a2.3,2.3,0,0,0,1-.38,2.52,2.52,0,0,0,1.07-1.28,1.76,1.76,0,0,0,0-1.47,1.29,1.29,0,0,0-1-.78,1.63,1.63,0,0,0-.38,0m1.62,6a17,17,0,0,1-3.54-.24c-2.29-.38-3.84-1-4.68-1.77a2.64,2.64,0,0,1-.48-3.12,4.37,4.37,0,0,1,2.75-2.61,7,7,0,0,1,1.51-.32l.42,0a16.52,16.52,0,0,1,3.55.25c2.32.38,3.9,1,4.72,1.77a2.65,2.65,0,0,1,.44,3.13,4.37,4.37,0,0,1-2.77,2.6,6.35,6.35,0,0,1-1.48.3l-.44,0M179.38,563l-.58,0a9.52,9.52,0,0,0-2.88.73,7.32,7.32,0,0,0-4,4.14c-.8,2-.67,3.65.42,4.93s2.91,2.11,5.48,2.53a15.81,15.81,0,0,0,3.37.2l.51,0a10,10,0,0,0,2.91-.74,7.33,7.33,0,0,0,4-4.14c.81-2,.67-3.65-.42-4.93s-2.9-2.1-5.47-2.52a15.48,15.48,0,0,0-3.33-.21" transform="translate(-111.98 -265.65)"/><path class="cls-5" d="M206.73,567.84h-.14a2.25,2.25,0,0,0-1.41.72,2.61,2.61,0,0,0-.79,1.46,1.53,1.53,0,0,0,.29,1.32,1.25,1.25,0,0,0,1.09.42h.13a2.57,2.57,0,0,0,1.48-.73,2.63,2.63,0,0,0,.81-1.44,1.51,1.51,0,0,0-.32-1.33,1.36,1.36,0,0,0-1.14-.42m-2.58,5.86a8.59,8.59,0,0,1-3.88-.44A2.21,2.21,0,0,1,199,570.6a4.43,4.43,0,0,1,2.23-3.09,14.57,14.57,0,0,1,5.69-1.57l.36,0,1.14-.09a8.39,8.39,0,0,1,3.85.43,2.23,2.23,0,0,1,1.23,2.68,4.42,4.42,0,0,1-2.25,3.08,14.66,14.66,0,0,1-5.68,1.57l-.37,0-1.06.09m4.39-10.15-.91.07-.31,0a14.85,14.85,0,0,0-6.95,2.35,7.21,7.21,0,0,0-3.16,4.79c-.35,2,.19,3.45,1.64,4.28A9,9,0,0,0,204,576c.32,0,.64,0,1-.08h0l.4,0a14.66,14.66,0,0,0,6.76-2.34,7.22,7.22,0,0,0,3.16-4.79q.54-3-1.64-4.29a9.15,9.15,0,0,0-5.1-.88" transform="translate(-111.98 -265.65)"/><polyline class="cls-5" points="129.98 289.23 128.19 289.89 128.41 293.34 112.43 299.23 112.55 300.98 114.76 304.04 116.82 303.27 114.82 300.43 128.55 295.37 128.79 299.08 130.58 298.42 129.98 289.23"/><polyline class="cls-5" points="155.09 274.48 153.38 275.56 154.47 278.59 139.25 288.21 139.8 289.74 142.86 291.86 144.82 290.63 142.03 288.63 155.11 280.37 156.28 283.6 157.98 282.53 155.09 274.48"/><polyline class="cls-5" points="177.64 254.43 176.13 255.86 178 258.26 164.49 271.03 165.45 272.25 169.16 273.31 170.91 271.67 167.51 270.65 179.11 259.68 181.13 262.27 182.64 260.83 177.64 254.43"/><path class="cls-5" d="M306.5,504.73h-.08a2.33,2.33,0,0,0-.49.12,2.9,2.9,0,0,0-1.36,1.06,2.36,2.36,0,0,0-.53,1.51,1.34,1.34,0,0,0,1.45,1.37h.05a2.41,2.41,0,0,0,.43-.1,3,3,0,0,0,1.88-2.59,1.27,1.27,0,0,0-.56-1.17,1.25,1.25,0,0,0-.79-.2m-4.36,9.33a2.09,2.09,0,0,1-1.3-.36c-.9-.57-1.17-1.56-.8-2.94a19.4,19.4,0,0,1,3.2-5.71,20.24,20.24,0,0,1,4.51-4.86,4,4,0,0,1,1.76-.72h.12a2.11,2.11,0,0,1,1.33.36c.89.58,1.16,1.56.78,3a19.73,19.73,0,0,1-3.19,5.69,20.28,20.28,0,0,1-4.49,4.82,4.17,4.17,0,0,1-1.8.74h-.12m7.75-16.55h-.16a6,6,0,0,0-2.41.88,20.34,20.34,0,0,0-5.67,5.63,18.63,18.63,0,0,0-3.56,7.09q-.55,3,1.49,4.32a3.66,3.66,0,0,0,2.26.6h.2a6.14,6.14,0,0,0,2.42-.87,20.36,20.36,0,0,0,5.68-5.63,18.67,18.67,0,0,0,3.55-7.1q.56-3-1.49-4.31a3.8,3.8,0,0,0-2.31-.61" transform="translate(-111.98 -265.65)"/><path class="cls-5" d="M322.52,477.62h-.07a2.15,2.15,0,0,0-.92.35,3,3,0,0,0-1.16,1.32,2,2,0,0,0-.16,1.49,1.19,1.19,0,0,0,.9.87,2,2,0,0,0,.49,0h.07a2.22,2.22,0,0,0,.86-.3,3,3,0,0,0,1.12-1.27,2.31,2.31,0,0,0,.2-1.56,1.14,1.14,0,0,0-.87-.89,1.41,1.41,0,0,0-.46-.05m-3.34,9.73a2.45,2.45,0,0,1-.76-.07,2.1,2.1,0,0,1-1.58-2.42,17.54,17.54,0,0,1,1.93-6,20.61,20.61,0,0,1,3.51-5.59,4,4,0,0,1,2.33-1.27h.1a2.89,2.89,0,0,1,.83.08c1.09.28,1.59,1.09,1.54,2.44a17,17,0,0,1-1.92,6,20,20,0,0,1-3.49,5.53,4,4,0,0,1-2.35,1.3h-.14m5.8-17.24h-.16a6.09,6.09,0,0,0-3.42,1.7,20.13,20.13,0,0,0-4.53,6.58q-2.12,4.49-1.95,7.31a3.35,3.35,0,0,0,2.6,3.46,4.75,4.75,0,0,0,1.4.13h.2a6.26,6.26,0,0,0,3.43-1.71,20.13,20.13,0,0,0,4.53-6.58q2.12-4.49,1.95-7.32a3.37,3.37,0,0,0-2.61-3.44,4.72,4.72,0,0,0-1.44-.13" transform="translate(-111.98 -265.65)"/><polyline class="cls-5" points="217.41 176.33 216.94 178.22 220.34 178.07 216.3 194.93 218.01 194.86 222.22 192.63 222.74 190.47 218.87 192.47 222.33 177.99 225.97 177.85 226.41 176.02 226.42 175.96 217.41 176.33"/><polyline class="cls-5" points="227.92 146.94 218.6 149.7 218.59 151.51 222.09 150.48 221.99 166.66 223.76 166.13 227.6 163 227.62 160.93 224.06 163.76 224.16 149.87 227.91 148.76 227.92 146.94"/><polyline class="cls-5" points="222.36 120.52 213.33 125.52 213.76 127.15 217.16 125.27 221.03 139.76 222.75 138.81 225.98 134.97 225.48 133.1 222.48 136.61 219.15 124.16 222.8 122.15 222.36 120.52"/><path class="cls-5" d="M322.86,371.74h-.08a2.09,2.09,0,0,0-1.16.54,2.69,2.69,0,0,0-.9,1.43,1.76,1.76,0,0,0,.19,1.44,1.18,1.18,0,0,0,1.11.58h.2a2.15,2.15,0,0,0,1.23-.58,2.75,2.75,0,0,0,.92-1.38,1.69,1.69,0,0,0-.17-1.39,1.35,1.35,0,0,0-1.16-.64h-.18m1.05,8.47a2.66,2.66,0,0,1-1.14-.19c-1.08-.42-2.24-1.58-3.47-3.5a10,10,0,0,1-1.88-4.84,4.16,4.16,0,0,1,1.58-3.37,3.71,3.71,0,0,1,1.95-.92h.1a2.71,2.71,0,0,1,1.21.2c1.09.43,2.24,1.6,3.46,3.49a10.05,10.05,0,0,1,1.85,4.82,4.1,4.1,0,0,1-1.54,3.36,3.55,3.55,0,0,1-2,.94h-.15m-2.26-14.82-.21,0a6,6,0,0,0-3.3,1.57,6.88,6.88,0,0,0-2.66,5.09,10.53,10.53,0,0,0,1.9,6.08c1.39,2.17,2.91,3.47,4.56,3.92a4.7,4.7,0,0,0,1.44.14l.21,0a6.07,6.07,0,0,0,3.3-1.56,6.87,6.87,0,0,0,2.66-5.1,10.41,10.41,0,0,0-1.9-6.08c-1.39-2.17-2.9-3.47-4.56-3.91a4.42,4.42,0,0,0-1.44-.15" transform="translate(-111.98 -265.65)"/><path class="cls-5" d="M307.1,354.2H307l-.26,0a2.65,2.65,0,0,0-1.94,2.39,1.5,1.5,0,0,0,.54,1.26,1.34,1.34,0,0,0,.93.28h.08a1,1,0,0,0,.29-.05,2.54,2.54,0,0,0,1.36-.92,2.48,2.48,0,0,0,.61-1.49,1.38,1.38,0,0,0-.52-1.2,1.35,1.35,0,0,0-1-.31m1.83,7.55h-.47a8.92,8.92,0,0,1-4.47-2.21,8.6,8.6,0,0,1-3.14-3.83,3.58,3.58,0,0,1,.84-3.43,3.79,3.79,0,0,1,2.56-1.53h.15a2.79,2.79,0,0,1,.5,0,8.79,8.79,0,0,1,4.47,2.19,8.64,8.64,0,0,1,3.1,3.81,3.56,3.56,0,0,1-.8,3.44,3.82,3.82,0,0,1-2.59,1.55h-.15m-3.88-13.05-.22,0a6.42,6.42,0,0,0-4.37,2.58,6.1,6.1,0,0,0-1.54,5.29,10.66,10.66,0,0,0,9.17,7.21h.23l.22,0a6.47,6.47,0,0,0,4.37-2.59,6.1,6.1,0,0,0,1.53-5.28,10.58,10.58,0,0,0-9.17-7.21h-.22" transform="translate(-111.98 -265.65)"/></g></g></g><g class="cls-2"><g class="cls-6"><g class="cls-7"><path class="cls-5" d="M289.61,483.69h-.08l-.26,0a2.54,2.54,0,0,0-1.36.89,2.43,2.43,0,0,0-.58,1.52,1.44,1.44,0,0,0,.55,1.24,1.31,1.31,0,0,0,.92.28h.07l.32-.06a2.61,2.61,0,0,0,1.35-.92,2.45,2.45,0,0,0,.6-1.49,1.37,1.37,0,0,0-.51-1.2,1.49,1.49,0,0,0-1-.3m1.87,7.52a3.38,3.38,0,0,1-.45,0,8.71,8.71,0,0,1-4.48-2.18,8.61,8.61,0,0,1-3.17-3.8,3.57,3.57,0,0,1,.82-3.44,3.86,3.86,0,0,1,2.6-1.54h.63a8.89,8.89,0,0,1,4.46,2.17,8.65,8.65,0,0,1,3.13,3.8,3.54,3.54,0,0,1-.79,3.44,3.79,3.79,0,0,1-2.6,1.55h-.15m-3.71-13-.4,0a6.48,6.48,0,0,0-4.4,2.61,6,6,0,0,0-1.51,5.28,10.67,10.67,0,0,0,9.21,7.16l.41,0a6.5,6.5,0,0,0,4.41-2.62,6.08,6.08,0,0,0,1.5-5.28,10.57,10.57,0,0,0-9.22-7.15" transform="translate(-111.98 -265.65)"/><path class="cls-5" d="M274.9,467.79h-.21a2.18,2.18,0,0,0-1.22.57,2.65,2.65,0,0,0-.87,1.43,1.78,1.78,0,0,0,.22,1.45,1.25,1.25,0,0,0,1.14.55h.15a2.48,2.48,0,0,0,1.28-.61,2.67,2.67,0,0,0,.88-1.41,1.64,1.64,0,0,0-.21-1.38,1.38,1.38,0,0,0-1.16-.6m1,8.41a3,3,0,0,1-1.13-.17c-1.09-.4-2.27-1.52-3.56-3.4a9.83,9.83,0,0,1-2-4.76,4.05,4.05,0,0,1,1.52-3.38,3.6,3.6,0,0,1,2-1h.15a2.74,2.74,0,0,1,1.12.18q1.67.6,3.55,3.38a9.68,9.68,0,0,1,2,4.75,4,4,0,0,1-1.49,3.38,3.62,3.62,0,0,1-2,1h-.11m-2.45-14.69-.21,0a6.07,6.07,0,0,0-3.4,1.65,6.8,6.8,0,0,0-2.56,5.11,10.31,10.31,0,0,0,2,6q2.16,3.18,4.66,3.78a4.85,4.85,0,0,0,1.41.13l.17,0a6.08,6.08,0,0,0,3.38-1.65,6.8,6.8,0,0,0,2.56-5.12,10.22,10.22,0,0,0-2-6c-1.43-2.12-3-3.37-4.67-3.77a4.65,4.65,0,0,0-1.34-.12" transform="translate(-111.98 -265.65)"/><path class="cls-5" d="M265,447.49h-.08a2,2,0,0,0-.82.3,2.74,2.74,0,0,0-1.12,1.28,2.18,2.18,0,0,0-.13,1.55,1.2,1.2,0,0,0,.9.87,1.87,1.87,0,0,0,.47,0h.07a2.13,2.13,0,0,0,.9-.32,2.82,2.82,0,0,0,1.12-1.25,2,2,0,0,0,.13-1.48,1.33,1.33,0,0,0-.92-.93,1.53,1.53,0,0,0-.52-.05m.13,9.11a2.31,2.31,0,0,1-1.57-.5q-1.35-1-2.45-4.43a12,12,0,0,1-.74-5.47,4.44,4.44,0,0,1,2.15-3.14,3.57,3.57,0,0,1,1.43-.52h.13a2.28,2.28,0,0,1,1.57.52q1.37,1.05,2.45,4.42a11.66,11.66,0,0,1,.71,5.43,4.36,4.36,0,0,1-2.12,3.16,3.53,3.53,0,0,1-1.45.53h-.11m-.53-16h-.17a5.89,5.89,0,0,0-2.42.89,7.22,7.22,0,0,0-3.49,4.71,12.61,12.61,0,0,0,.49,6.76c.83,2.56,1.95,4.26,3.38,5.1a3.83,3.83,0,0,0,2.18.54l.21,0a6.07,6.07,0,0,0,2.44-.89A7.2,7.2,0,0,0,270.7,453a12.58,12.58,0,0,0-.49-6.78c-.84-2.56-1.95-4.26-3.39-5.09a3.79,3.79,0,0,0-2.22-.54" transform="translate(-111.98 -265.65)"/><polyline class="cls-5" points="151.99 150.08 142.69 153.47 142.8 155.24 146.29 153.97 147.25 169.8 149.01 169.16 152.72 165.83 152.58 163.79 149.16 166.82 148.34 153.22 152.09 151.87 151.99 150.08"/><path class="cls-5" d="M262.2,398.26h-.12a2.42,2.42,0,0,0-1.42.78,2.81,2.81,0,0,0-.78,1.54,1.47,1.47,0,0,0,.32,1.32,1.21,1.21,0,0,0,1.07.42h.07l.07,0a2.27,2.27,0,0,0,1.4-.72,2.75,2.75,0,0,0,.76-1.47,1.68,1.68,0,0,0-.31-1.4,1.24,1.24,0,0,0-1.06-.46m-2,9.82a2,2,0,0,1-2.19-1.5c-.39-1.16-.36-3.06.08-5.76a17.11,17.11,0,0,1,1.84-6,4.07,4.07,0,0,1,3-2.19l.1,0h.14a2,2,0,0,1,2.16,1.53c.39,1.16.35,3.07-.08,5.75a17,17,0,0,1-1.85,5.93,4.16,4.16,0,0,1-3,2.23h-.23m3.44-17.37-.26,0-.12,0a6.57,6.57,0,0,0-4.73,3.15,16.77,16.77,0,0,0-2.38,6.06l-.21,1.12h0c-.51,3.05-.39,5.34.32,6.9a3.29,3.29,0,0,0,3.45,2l.24,0,.15,0a6.59,6.59,0,0,0,4.73-3.14,18,18,0,0,0,2.61-7.21c.49-3,.38-5.34-.35-6.89a3.27,3.27,0,0,0-3.45-2" transform="translate(-111.98 -265.65)"/><path class="cls-5" d="M269.23,371.91a2.3,2.3,0,0,0-1.08.46,3,3,0,0,0-1.06,1.41,1.85,1.85,0,0,0,0,1.46,1.2,1.2,0,0,0,1,.73h.39a2.15,2.15,0,0,0,1-.42,2.78,2.78,0,0,0,1-1.34,2,2,0,0,0,0-1.53,1.15,1.15,0,0,0-1-.76h-.37m-2.79,9.8a3.39,3.39,0,0,1-.55,0,2,2,0,0,1-1.85-2.15,16.32,16.32,0,0,1,1.37-6,19.46,19.46,0,0,1,3-5.77,4.06,4.06,0,0,1,2.56-1.54h.11a3.37,3.37,0,0,1,.55,0c1.14.14,1.74.87,1.84,2.18a16.46,16.46,0,0,1-1.37,6,19.63,19.63,0,0,1-3,5.73,4.06,4.06,0,0,1-2.57,1.56h-.11m5-17.37-.23,0a6.22,6.22,0,0,0-3.84,2.11,19.84,19.84,0,0,0-4,6.84c-1.14,3.05-1.56,5.47-1.27,7.28a3.27,3.27,0,0,0,3,3,4.08,4.08,0,0,0,.92,0l.22,0a6.19,6.19,0,0,0,3.84-2.11,19.8,19.8,0,0,0,4-6.86c1.14-3,1.55-5.47,1.25-7.26a3.26,3.26,0,0,0-3-3,4.08,4.08,0,0,0-.92,0" transform="translate(-111.98 -265.65)"/><polyline class="cls-5" points="170.26 72.06 169.2 73.85 172.03 75.07 162.59 90.97 164.02 91.59 168.27 90.97 169.49 88.93 165.59 89.45 173.69 75.78 176.72 77.1 177.78 75.32 170.26 72.06"/><path class="cls-5" d="M298.73,322.53h-.08l-.3.05a2.78,2.78,0,0,0-1.42.94,2.59,2.59,0,0,0-.66,1.49,1.41,1.41,0,0,0,.46,1.25,1.25,1.25,0,0,0,.95.31h.08l.24-.05a2.57,2.57,0,0,0,1.37-.88,2.9,2.9,0,0,0,.7-1.55,1.37,1.37,0,0,0-.42-1.27,1.23,1.23,0,0,0-.92-.29M294,331.6a2,2,0,0,1-1.47-.5c-.8-.7-1-1.74-.47-3.12a28.07,28.07,0,0,1,8.52-10,4.14,4.14,0,0,1,1.5-.52h.1a2.11,2.11,0,0,1,1.53.53c.81.69,1,1.74.45,3.12a27.65,27.65,0,0,1-8.48,9.93,4.28,4.28,0,0,1-1.54.53H294m8.52-16.09-.2,0a5.81,5.81,0,0,0-2,.6,19.73,19.73,0,0,0-6,5.13,19.21,19.21,0,0,0-4.15,6.87c-.57,2-.24,3.54,1,4.6a3.56,3.56,0,0,0,2.58.88l.17,0a6.29,6.29,0,0,0,2-.6,19.5,19.5,0,0,0,6.05-5.13,19.09,19.09,0,0,0,4.15-6.88q.84-3-1-4.58a3.52,3.52,0,0,0-2.56-.89" transform="translate(-111.98 -265.65)"/><path class="cls-5" d="M319.52,302.11h-.16a2.57,2.57,0,0,0-1.35.61,2.85,2.85,0,0,0-.93,1.4,1.71,1.71,0,0,0,.13,1.4,1.21,1.21,0,0,0,1.09.61l.21,0a2.31,2.31,0,0,0,1.23-.56,3,3,0,0,0,1-1.44,1.68,1.68,0,0,0-.08-1.42,1.19,1.19,0,0,0-1.13-.58m-5.33,8.34a1.91,1.91,0,0,1-1.86-.93,3.18,3.18,0,0,1,.27-3.37,20.74,20.74,0,0,1,4.58-4.8,18.44,18.44,0,0,1,5.4-3.45,3.59,3.59,0,0,1,.8-.17h.14a1.92,1.92,0,0,1,1.89,1c.57.93.47,2.05-.31,3.37a20.75,20.75,0,0,1-4.55,4.79,18.28,18.28,0,0,1-5.37,3.41,3.5,3.5,0,0,1-.85.18h-.14m9.66-14.74-.23,0a6.82,6.82,0,0,0-.82.15,17.86,17.86,0,0,0-6.63,3.82,19.7,19.7,0,0,0-5.32,6.13c-1,1.94-1,3.61-.15,5a3.25,3.25,0,0,0,3.16,1.64l.23,0a5.09,5.09,0,0,0,.82-.15,17.74,17.74,0,0,0,6.64-3.82,19.83,19.83,0,0,0,5.32-6.13c1-1.94,1-3.6.14-5a3.24,3.24,0,0,0-3.16-1.65" transform="translate(-111.98 -265.65)"/><polyline class="cls-5" points="237.65 13.02 235.91 13.98 236.74 17.16 221.18 25.72 221.61 27.32 224.42 29.74 226.43 28.64 223.87 26.37 237.23 19.03 238.12 22.42 239.87 21.47 237.65 13.02"/><path class="cls-5" d="M367.6,275.09h-.08a2.78,2.78,0,0,0-.46.11,2.56,2.56,0,0,0-1.33,1,2.48,2.48,0,0,0-.52,1.52,1.37,1.37,0,0,0,.57,1.15,1.33,1.33,0,0,0,.81.2h.09a2,2,0,0,0,.45-.1,2.83,2.83,0,0,0,1.39-1,2.28,2.28,0,0,0,.55-1.49,1.26,1.26,0,0,0-.61-1.15,1.47,1.47,0,0,0-.86-.21m-4.78,6.55a4.88,4.88,0,0,1-1.24-.06,2,2,0,0,1-1.85-2.15,4.17,4.17,0,0,1,1.68-3.33,17.15,17.15,0,0,1,5.61-2.72,19.5,19.5,0,0,1,4-.95l.38,0a5,5,0,0,1,1.25.05,2,2,0,0,1,1.82,2.19,4.12,4.12,0,0,1-1.72,3.31,16.85,16.85,0,0,1-5.58,2.73,19.82,19.82,0,0,1-3.93.93l-.42,0m8.49-11.36-.51,0a19.2,19.2,0,0,0-3.83.87,17.25,17.25,0,0,0-6.76,3.72A6.76,6.76,0,0,0,357.9,280a3.35,3.35,0,0,0,2.57,3.57,7.58,7.58,0,0,0,2.35.2l.58-.05a19,19,0,0,0,3.82-.85,17.28,17.28,0,0,0,6.74-3.74,6.8,6.8,0,0,0,2.32-5.1,3.34,3.34,0,0,0-2.58-3.57,7.52,7.52,0,0,0-2.39-.2" transform="translate(-111.98 -265.65)"/><path class="cls-5" d="M392.48,269.92h-.11a2.25,2.25,0,0,0-1.38.67,2.62,2.62,0,0,0-.81,1.45,1.56,1.56,0,0,0,.25,1.35,1.25,1.25,0,0,0,1.13.45h.1a2.52,2.52,0,0,0,1.46-.7,2.56,2.56,0,0,0,.84-1.42,1.58,1.58,0,0,0-.29-1.35,1.41,1.41,0,0,0-1.19-.46m-2,5.81a9.17,9.17,0,0,1-4.44-.53,2.22,2.22,0,0,1-1.18-2.71,4.39,4.39,0,0,1,2.29-3,13.3,13.3,0,0,1,5.22-1.38l.46-.05.91-.07a9.12,9.12,0,0,1,4.39.52,2.25,2.25,0,0,1,1.15,2.74,4.39,4.39,0,0,1-2.3,3,13.79,13.79,0,0,1-5.22,1.39l-.46,0-.82.06M394,265.68l-.72.05-.31,0-.32,0a14.1,14.1,0,0,0-6.31,2.11,7.24,7.24,0,0,0-3.26,4.75c-.4,2,.1,3.47,1.52,4.36a9.4,9.4,0,0,0,5.55,1l.71,0,.32,0a14.28,14.28,0,0,0,6.63-2.15,7.24,7.24,0,0,0,3.25-4.74c.41-2-.1-3.48-1.51-4.37a9.43,9.43,0,0,0-5.55-1" transform="translate(-111.98 -265.65)"/><path class="cls-5" d="M416.15,270.77h-.08a2,2,0,0,0-1,.38,2.7,2.7,0,0,0-1.07,1.31,1.87,1.87,0,0,0-.07,1.46,1.2,1.2,0,0,0,1,.77,1.79,1.79,0,0,0,.4,0h.08a2.19,2.19,0,0,0,1-.37,2.65,2.65,0,0,0,1.09-1.28,1.84,1.84,0,0,0,0-1.47,1.35,1.35,0,0,0-1-.8,1.7,1.7,0,0,0-.39,0m1.65,6a16.23,16.23,0,0,1-3.58-.26c-2.29-.39-3.83-1-4.66-1.8a2.65,2.65,0,0,1-.47-3.13,4.35,4.35,0,0,1,2.76-2.6,6.11,6.11,0,0,1,1.44-.3l.43,0a16.48,16.48,0,0,1,3.6.26q3.48.6,4.7,1.8a2.65,2.65,0,0,1,.42,3.14,4.33,4.33,0,0,1-2.77,2.59,7,7,0,0,1-1.44.29l-.43,0m-3-10.35-.57,0a9.82,9.82,0,0,0-2.81.7,7.34,7.34,0,0,0-4,4.14c-.82,2-.69,3.64.38,4.91s2.9,2.15,5.46,2.59a15.88,15.88,0,0,0,3.44.21l.52,0a9.88,9.88,0,0,0,2.83-.71,7.35,7.35,0,0,0,4-4.12c.82-2,.7-3.67-.38-4.95s-2.9-2.12-5.46-2.55a15,15,0,0,0-3.4-.22" transform="translate(-111.98 -265.65)"/><polyline class="cls-5" points="319.07 8.85 317.97 10.59 317.15 15.09 318.76 15.89 319.56 11.74 330.37 17.05 328.04 20.74 329.45 21.42 335.22 12.31 333.81 11.61 331.64 15.03 319.07 8.85"/><polyline class="cls-5" points="338.55 19.56 337.16 21.09 335.4 25.58 336.69 26.81 338.35 22.69 346.92 30.94 343.99 34.18 345.11 35.25 352.39 27.2 351.27 26.12 348.54 29.15 338.55 19.56"/><polyline class="cls-5" points="353.74 35.57 352.14 36.82 349.52 41.06 350.41 42.67 352.85 38.79 358.73 49.55 355.34 52.19 356.1 53.59 364.52 47.02 363.76 45.62 360.59 48.1 353.74 35.57"/><path class="cls-5" d="M476.6,328.86h-.1a2.08,2.08,0,0,0-.78.25,2.69,2.69,0,0,0-1.18,1.18,2.15,2.15,0,0,0-.24,1.51,1.39,1.39,0,0,0,.83,1,1.56,1.56,0,0,0,.64.1h.06a2,2,0,0,0,.71-.23,2.64,2.64,0,0,0,1.17-1.21,2.31,2.31,0,0,0,.25-1.57,1.2,1.2,0,0,0-.82-.95,1.23,1.23,0,0,0-.54-.09m-.23,9.18a2.2,2.2,0,0,1-1.69-.64q-1.24-1.18-2.06-4.71a12.76,12.76,0,0,1-.31-5.6,4.39,4.39,0,0,1,2.29-3,3.61,3.61,0,0,1,1.27-.41H476a2.2,2.2,0,0,1,1.67.63q1.26,1.15,2.08,4.72a12.72,12.72,0,0,1,.31,5.62,4.4,4.4,0,0,1-2.32,3,3.28,3.28,0,0,1-1.24.41h-.12m.18-16.39-.21,0a5.74,5.74,0,0,0-2.12.68,7.32,7.32,0,0,0-3.74,4.52,13.33,13.33,0,0,0,0,6.94c.62,2.68,1.58,4.5,2.92,5.47a3.66,3.66,0,0,0,2.43.71H476a6,6,0,0,0,2.13-.69,7.29,7.29,0,0,0,3.73-4.51,13.4,13.4,0,0,0,0-6.93c-.61-2.68-1.59-4.5-2.91-5.48a3.69,3.69,0,0,0-2.41-.72" transform="translate(-111.98 -265.65)"/><path class="cls-5" d="M479.08,353.24H479l-.37.07a2.65,2.65,0,0,0-1.34.93,2.51,2.51,0,0,0-.55,1.52,1.52,1.52,0,0,0,.52,1.26,1.29,1.29,0,0,0,.91.29h.06a1.39,1.39,0,0,0,.33-.07,2.44,2.44,0,0,0,1.34-1,2.53,2.53,0,0,0,.57-1.57,1.33,1.33,0,0,0-.51-1.2,1.36,1.36,0,0,0-.89-.24m-1.27,9.57a2,2,0,0,1-2-1.14c-.58-1-.86-2.83-.82-5.42a15.51,15.51,0,0,1,1-5.9,4.28,4.28,0,0,1,2.77-2.6,3.61,3.61,0,0,1,.62-.13h.13a2,2,0,0,1,2,1.12q.87,1.51.81,5.43a15.67,15.67,0,0,1-1,5.95,4.35,4.35,0,0,1-2.78,2.57,2.27,2.27,0,0,1-.61.12h-.12M480,345.67h-.2a6.91,6.91,0,0,0-5.44,4,16.08,16.08,0,0,0-1.58,7.22q-.07,4.42,1.41,6.43a3.32,3.32,0,0,0,3,1.43l.23,0a6.79,6.79,0,0,0,1-.2,7.09,7.09,0,0,0,4.41-3.77,16.22,16.22,0,0,0,1.57-7.22q.08-4.42-1.4-6.43a3.34,3.34,0,0,0-3-1.43" transform="translate(-111.98 -265.65)"/><polyline class="cls-5" points="365.41 106.19 361.22 108.44 360.71 110.61 364.58 108.58 361.21 123.05 357.58 123.23 357.13 125.12 366.17 124.68 366.61 122.78 363.21 122.95 367.13 106.11 365.41 106.19"/><path class="cls-5" d="M466.88,405.57h-.08a2.15,2.15,0,0,0-.91.33,2.86,2.86,0,0,0-1.08,1.29,2.15,2.15,0,0,0-.16,1.55,1.15,1.15,0,0,0,.89.86,1.42,1.42,0,0,0,.41,0H466a2,2,0,0,0,1-.37,3,3,0,0,0,1.14-1.34,1.92,1.92,0,0,0,.12-1.49,1.2,1.2,0,0,0-.93-.82,1.32,1.32,0,0,0-.44,0m-3,9.7a3.29,3.29,0,0,1-.77-.06c-1.1-.24-1.64-1-1.63-2.37a17.31,17.31,0,0,1,1.77-6,20,20,0,0,1,3.36-5.6,4.08,4.08,0,0,1,2.43-1.38h.09a3,3,0,0,1,.73.06,2.08,2.08,0,0,1,1.65,2.35,16.61,16.61,0,0,1-1.78,6,19.79,19.79,0,0,1-3.36,5.64,4.05,4.05,0,0,1-2.4,1.35h-.09m5.58-17.33-.22,0a6.17,6.17,0,0,0-3.54,1.81,20.16,20.16,0,0,0-4.4,6.68q-2,4.51-1.75,7.3a3.33,3.33,0,0,0,2.73,3.33,4.91,4.91,0,0,0,1.26.1l.22,0a6.11,6.11,0,0,0,3.53-1.81,20.15,20.15,0,0,0,4.39-6.66c1.34-3,1.92-5.45,1.76-7.31a3.32,3.32,0,0,0-2.74-3.34,5.15,5.15,0,0,0-1.24-.1" transform="translate(-111.98 -265.65)"/><path class="cls-5" d="M453,430.77h-.08a1.8,1.8,0,0,0-.52.13A2.64,2.64,0,0,0,451.1,432a2.57,2.57,0,0,0-.5,1.58,1.26,1.26,0,0,0,.62,1.11,1.31,1.31,0,0,0,.72.16H452a2.33,2.33,0,0,0,.6-.16,2.85,2.85,0,0,0,1.32-1.12,2.24,2.24,0,0,0,.45-1.52,1.28,1.28,0,0,0-.66-1.09,1.44,1.44,0,0,0-.76-.17m-3.92,9.41a2.38,2.38,0,0,1-1.28-.28c-.94-.53-1.25-1.48-.94-2.87a19.16,19.16,0,0,1,2.95-5.8,20.21,20.21,0,0,1,4.29-5,4,4,0,0,1,1.93-.86h.13a2.31,2.31,0,0,1,1.2.28c.94.53,1.26,1.48,1,2.86a19.07,19.07,0,0,1-3,5.79,20.5,20.5,0,0,1-4.32,5,4.08,4.08,0,0,1-1.87.82h-.09m7.37-16.76h-.2a6.2,6.2,0,0,0-2.64,1,20.43,20.43,0,0,0-5.48,5.87,18,18,0,0,0-3.23,7.17c-.26,2,.31,3.37,1.72,4.15a3.83,3.83,0,0,0,2.1.49h.21a6.09,6.09,0,0,0,2.62-1,20.37,20.37,0,0,0,5.48-5.86,18.16,18.16,0,0,0,3.24-7.17c.27-2-.3-3.38-1.73-4.16a3.66,3.66,0,0,0-2.09-.49" transform="translate(-111.98 -265.65)"/><polyline class="cls-5" points="325.51 181.5 323.86 183.23 327.39 183.97 316.31 195.56 314.08 193.19 312.64 194.71 318.17 200.59 319.62 199.07 317.54 196.86 330.42 183.37 329.38 182.25 325.51 181.5"/><path class="cls-5" d="M412.87,472.67a2.29,2.29,0,0,0-1.11.48,3,3,0,0,0-1.07,1.39,1.71,1.71,0,0,0,0,1.45,1.18,1.18,0,0,0,1.06.68h.18l.14,0a2.47,2.47,0,0,0,1.18-.48,2.87,2.87,0,0,0,1-1.35,1.91,1.91,0,0,0,0-1.45,1.25,1.25,0,0,0-1-.71h-.33m-5.12,8.15a1.94,1.94,0,0,1-2-1.14,3.35,3.35,0,0,1,.54-3.42,20.92,20.92,0,0,1,4.8-4.51,17.39,17.39,0,0,1,5.49-3,4.34,4.34,0,0,1,.59-.11h.14a1.9,1.9,0,0,1,2,1.12,3.31,3.31,0,0,1-.52,3.4,19.79,19.79,0,0,1-4.81,4.51,18,18,0,0,1-5.52,3.09l-.54.09h-.14m9.87-14.26h-.24l-.4.06a16.92,16.92,0,0,0-6.77,3.35,19.81,19.81,0,0,0-5.63,5.81q-1.62,2.85-.52,5.11a3.24,3.24,0,0,0,3.34,1.93l.24,0,.42-.06a17,17,0,0,0,6.75-3.34,20,20,0,0,0,5.64-5.81q1.62-2.85.51-5.12a3.21,3.21,0,0,0-3.34-1.92" transform="translate(-111.98 -265.65)"/><polyline class="cls-5" points="282.69 216.48 280.67 217.45 283.03 219.94 269.49 226.48 268.82 222.96 267.06 223.81 268.7 232.55 270.47 231.71 269.85 228.42 285.62 220.8 285.3 219.13 282.69 216.48"/><path class="cls-5" d="M364,496.34h-.09l-.3.05a2.88,2.88,0,0,0-1.43.91,2.54,2.54,0,0,0-.65,1.49A1.32,1.32,0,0,0,362,500a1.46,1.46,0,0,0,1,.29h.08l.3,0a2.77,2.77,0,0,0,2-2.41,1.37,1.37,0,0,0-.47-1.21,1.26,1.26,0,0,0-.92-.27m-4.35,6.37a6,6,0,0,1-1.9-.15,2.07,2.07,0,0,1-1.61-2.38,4.31,4.31,0,0,1,1.92-3.25,16.38,16.38,0,0,1,5.64-2.3,21.13,21.13,0,0,1,3-.56l.59-.05a5.88,5.88,0,0,1,1.92.15,2.07,2.07,0,0,1,1.65,2.35,4.3,4.3,0,0,1-1.9,3.25,16.06,16.06,0,0,1-5.65,2.31,22.07,22.07,0,0,1-3.1.58l-.57,0m7.52-10.88-.6,0a20.32,20.32,0,0,0-2.75.51,16.28,16.28,0,0,0-6.84,3.24,7,7,0,0,0-2.65,5q-.15,3,2.25,3.84a8,8,0,0,0,3.22.39l.66-.05a22.31,22.31,0,0,0,2.73-.49,16.5,16.5,0,0,0,6.86-3.25,6.94,6.94,0,0,0,2.64-5c.11-2-.64-3.25-2.23-3.85a8.15,8.15,0,0,0-3.29-.38" transform="translate(-111.98 -265.65)"/><path class="cls-5" d="M339.34,499.56h-.2a2.47,2.47,0,0,0-1.3.59,2.56,2.56,0,0,0-.93,1.39,1.59,1.59,0,0,0,.19,1.38,1.35,1.35,0,0,0,1.19.58h.18a2.28,2.28,0,0,0,1.25-.58,2.76,2.76,0,0,0,.9-1.42,1.62,1.62,0,0,0-.14-1.37,1.3,1.3,0,0,0-1.14-.57m-.38,5.83c-.38,0-.77,0-1.19,0q-3.69,0-5.14-.9a2.37,2.37,0,0,1-.91-2.88,4.43,4.43,0,0,1,2.47-2.91,10.39,10.39,0,0,1,3.46-.87c.29,0,.59-.06.91-.07s.82,0,1.26-.05c2.41,0,4.12.29,5.09.91a2.36,2.36,0,0,1,1,2.87,4.38,4.38,0,0,1-2.45,2.91,10.08,10.08,0,0,1-3.49.88l-1,.08m.41-9.92c-.26,0-.53,0-.79.06a12.34,12.34,0,0,0-5.08,1.55,7.39,7.39,0,0,0-3.52,4.56c-.54,2.05-.16,3.56,1.15,4.59s3.32,1.51,6,1.49c.34,0,.68,0,1,0l.47,0,.75-.08a12.21,12.21,0,0,0,4.71-1.51,7.37,7.37,0,0,0,3.54-4.57q.81-3-1.16-4.57c-1.32-1-3.32-1.51-6-1.49-.37,0-.72,0-1.07,0" transform="translate(-111.98 -265.65)"/></g></g></g></svg>