<?xml version="1.0" encoding="utf-8"?>
<!-- Generator: Adobe Illustrator 22.1.0, SVG Export Plug-In . SVG Version: 6.00 Build 0)  -->
<svg version="1.1" id="Layer_1" xmlns="http://www.w3.org/2000/svg" xmlns:xlink="http://www.w3.org/1999/xlink" x="0px" y="0px"
	 viewBox="0 0 595.3 841.9" style="enable-background:new 0 0 595.3 841.9;" xml:space="preserve">
<style type="text/css">
	.st0{enable-background:new    ;}
	.st1{clip-path:url(#SVGID_2_);}
	.st2{clip-path:url(#SVGID_4_);}
</style>
<g>
	<g>
		<g class="st0">
			<defs>
				<polygon id="SVGID_1_" class="st0" points="229.6,573.8 231.4,322.1 486.4,287.6 484.5,539.3 				"/>
			</defs>
			<clipPath id="SVGID_2_">
				<use xlink:href="#SVGID_1_"  style="overflow:visible;"/>
			</clipPath>
			<g class="st1">
				<g>
					<g>
						<g>
							<polyline points="357.8,340.4 355.3,341.7 350.9,347.1 351.9,349.8 356,345 362.7,363.7 357.5,366.3 358.4,368.7 
								371.4,362.2 370.5,359.8 365.6,362.2 357.8,340.4 							"/>
							<path d="M388.3,349.2c-0.5,0.1-1,0.3-1.5,0.6c-0.7,0.5-1.1,1.1-1.3,1.9c-0.2,0.8-0.1,1.5,0.2,2.1c0.4,0.6,0.9,1,1.6,1.1
								c0.2,0,0.5,0,0.7,0c0.5-0.1,0.9-0.3,1.4-0.6c0.7-0.5,1.2-1.1,1.4-1.9c0.2-0.8,0.2-1.5-0.2-2.1c-0.4-0.6-0.9-1-1.7-1.1
								C388.8,349.2,388.5,349.2,388.3,349.2 M382.5,360.6c-1.8,0.2-3.2-0.3-4-1.8c-0.9-1.5-0.8-3.2,0.3-5c1.1-1.8,3.3-3.9,6.7-6.2
								c3.3-2.4,6-3.7,7.9-4c0.1,0,0.2,0,0.3,0c1.8-0.2,3.2,0.4,4,1.8c0.9,1.5,0.8,3.2-0.4,5c-1.1,1.8-3.3,3.9-6.7,6.2
								c-3.3,2.3-5.9,3.6-7.9,4C382.7,360.5,382.6,360.6,382.5,360.6 M393.4,340.6c-2.8,0.4-5.9,1.8-9.5,4.3
								c-3.8,2.7-6.4,5.4-7.8,8.1c-1.4,2.7-1.4,5.2,0,7.5c1.4,2.4,3.5,3.4,6.3,3.1c0.1,0,0.2,0,0.3,0c2.8-0.4,6-1.8,9.5-4.3
								c3.8-2.7,6.4-5.4,7.7-8.1c1.4-2.7,1.4-5.2,0-7.5c-1.4-2.4-3.5-3.4-6.4-3.1C393.6,340.6,393.5,340.6,393.4,340.6"/>
							<polyline points="433.8,331.2 433.4,336.5 409.7,338 409.5,340.7 411.9,346.4 415,346.2 412.8,340.9 433.1,339.7 
								432.7,345.4 435.4,345.3 436.5,331 433.8,331.2 							"/>
							<path d="M455.9,344.9c-0.1,0-0.3,0-0.4,0.1c-0.8,0.2-1.4,0.7-1.9,1.4c-0.5,0.7-0.7,1.4-0.6,2.2c0.1,0.7,0.5,1.3,1.1,1.7
								c0.6,0.4,1.2,0.5,1.8,0.4c0.1,0,0.2,0,0.3-0.1c0.8-0.2,1.4-0.6,1.9-1.3c0.5-0.7,0.7-1.4,0.5-2.2c-0.1-0.8-0.5-1.4-1.1-1.8
								C457,345,456.5,344.8,455.9,344.9 M461,355.6c-0.4,0-0.7,0.1-1.1,0c-1.9-0.1-4.4-1.1-7.4-3.1c-2.9-1.9-4.8-3.7-5.7-5.5
								s-0.7-3.4,0.4-5c0.9-1.3,2.1-2.1,3.5-2.3c0.3,0,0.7-0.1,1.1,0c1.9,0.1,4.4,1.1,7.4,3.1c3,2,4.9,3.8,5.8,5.5
								c0.8,1.7,0.7,3.4-0.5,5C463.6,354.7,462.4,355.4,461,355.6 M450.9,336.9c-2.4,0.3-4.3,1.6-5.9,3.8c-1.8,2.5-2.1,5.1-1.1,7.7
								c1,2.6,3.2,4.9,6.5,7.1c3.4,2.2,6.5,3.3,9.3,3.2c0.3,0,0.6,0,0.9-0.1c2.4-0.3,4.4-1.6,5.9-3.8c1.8-2.6,2.1-5.1,1.1-7.7
								c-1-2.6-3.2-4.9-6.5-7.1c-3.4-2.2-6.5-3.3-9.3-3.2C451.5,336.8,451.2,336.9,450.9,336.9"/>
							<path d="M476.2,371.5c-0.3,0-0.6,0.1-1,0.3c-0.7,0.4-1.3,0.9-1.6,1.6s-0.4,1.5-0.1,2.2c0.3,0.7,0.7,1.3,1.4,1.5
								c0.4,0.2,0.8,0.2,1.3,0.2c0.3,0,0.6-0.1,0.9-0.3c0.7-0.4,1.3-0.9,1.6-1.7c0.3-0.8,0.4-1.5,0.1-2.3c-0.3-0.7-0.7-1.2-1.4-1.5
								C477,371.5,476.6,371.4,476.2,371.5 M478.2,384.9c-1.1,0.2-2.2-0.2-3.2-1c-1.4-1.2-2.7-3.5-3.9-7c-1.2-3.4-1.7-6.2-1.4-8.2
								c0.3-2,1.3-3.5,3-4.3c0.5-0.3,1.1-0.4,1.6-0.5c1.1-0.2,2.2,0.2,3.1,1c1.4,1.2,2.7,3.5,3.9,7.1c1.2,3.5,1.7,6.3,1.4,8.3
								c-0.3,2-1.3,3.5-3,4.3C479.2,384.7,478.7,384.8,478.2,384.9 M474.5,360.9c-0.8,0.1-1.7,0.4-2.6,0.8c-2.7,1.3-4.4,3.4-5,6.4
								c-0.6,2.9-0.2,6.3,1.1,10.2c1.4,4,3.2,6.7,5.4,8.2c1.4,1,3,1.4,4.6,1.2c0.8-0.1,1.7-0.4,2.6-0.8c2.7-1.3,4.4-3.5,5-6.4
								c0.6-2.9,0.2-6.3-1.1-10.2c-1.4-4-3.2-6.7-5.4-8.2C477.7,361.1,476.1,360.7,474.5,360.9"/>
							<polyline points="480.5,396.6 474.3,398.9 473.6,402.1 479.3,400 474.3,420.9 468.9,420.3 468.2,423 481.6,424.5 
								482.3,421.8 477.2,421.2 483.1,396.9 480.5,396.6 							"/>
							<polyline points="462.7,432.5 460.6,435.1 466.3,435.9 452.6,453.3 448.5,450.1 446.7,452.4 457,460.3 458.8,458.1 
								454.9,455.1 470.8,434.7 468.8,433.2 462.7,432.5 							"/>
							<path d="M432,471c-0.6,0.1-1.2,0.4-1.7,0.9c-0.6,0.6-1,1.3-1.1,2.1c-0.1,0.8,0,1.5,0.5,2c0.5,0.6,1.1,0.8,1.9,0.8
								c0.1,0,0.2,0,0.3,0c0.7-0.1,1.3-0.4,1.8-0.9c0.6-0.6,1-1.3,1.1-2c0.1-0.8-0.1-1.5-0.6-2c-0.5-0.6-1.1-0.8-1.8-0.8
								C432.2,471,432.1,471,432,471 M426.7,483.3c-1.4,0.2-2.5-0.2-3.4-1.3c-1.1-1.3-1.3-2.9-0.4-4.9c0.9-1.9,2.8-4.3,5.8-7.1
								c3-2.8,5.4-4.5,7.4-5.1c0.4-0.1,0.8-0.2,1.2-0.3c1.4-0.2,2.5,0.2,3.4,1.2c1.1,1.3,1.3,2.9,0.4,4.9c-0.8,1.9-2.8,4.3-5.8,7.1
								c-3,2.8-5.5,4.6-7.4,5.2C427.5,483.1,427.1,483.2,426.7,483.3 M437,461.7c-0.4,0.1-0.8,0.1-1.2,0.2c-2.8,0.8-5.9,2.7-9.2,5.8
								c-3.4,3.2-5.6,6.2-6.6,9c-1,2.8-0.6,5.3,1.1,7.2c1.5,1.8,3.4,2.5,5.7,2.2c0.4-0.1,0.8-0.1,1.2-0.2c2.8-0.8,5.9-2.7,9.2-5.8
								c3.4-3.2,5.6-6.2,6.6-9c1-2.8,0.6-5.3-1.1-7.3C441.2,462.1,439.3,461.3,437,461.7"/>
							<path d="M400.9,497.4c-0.5,0.1-1,0.3-1.5,0.7c-0.7,0.5-1.1,1.2-1.3,2c-0.2,0.8-0.1,1.5,0.3,2.1c0.4,0.6,1,0.9,1.8,1
								c0.2,0,0.4,0,0.6,0c0.5-0.1,1.1-0.3,1.6-0.7c0.7-0.5,1.1-1.2,1.3-1.9c0.2-0.8,0.1-1.5-0.3-2.1c-0.4-0.6-1-1-1.7-1
								C401.3,497.3,401.1,497.3,400.9,497.4 M395.4,509.1c-1.7,0.2-2.9-0.3-3.8-1.6c-1-1.5-0.9-3.1,0.1-5s3.2-4,6.4-6.5
								c3.2-2.4,5.8-3.9,7.8-4.4c0.2,0,0.4-0.1,0.6-0.1c1.7-0.2,2.9,0.3,3.8,1.6c1,1.5,0.9,3.1-0.1,5c-1,1.8-3.2,4-6.4,6.5
								c-3.3,2.5-5.9,4-7.8,4.4C395.8,509,395.6,509.1,395.4,509.1 M406.2,488.6c-0.1,0-0.1,0-0.2,0c-2.9,0.4-6.1,2-9.7,4.8
								c-3.7,2.8-6.2,5.6-7.4,8.4c-1.2,2.8-1.1,5.2,0.3,7.4c1.5,2.2,3.6,3.2,6.3,2.8c0.1,0,0.1,0,0.2,0c2.8-0.5,6.1-2,9.6-4.8
								c3.7-2.8,6.2-5.6,7.4-8.4c1.3-2.8,1.1-5.2-0.3-7.5C411.1,489.1,409,488.2,406.2,488.6"/>
							<path d="M367.8,520.6c-0.4,0.1-0.9,0.2-1.3,0.5c-0.7,0.5-1.2,1.1-1.5,1.9c-0.3,0.8-0.3,1.5,0.1,2.2c0.3,0.7,0.9,1.1,1.6,1.2
								c0.3,0.1,0.6,0.1,0.9,0c0.5-0.1,0.9-0.2,1.3-0.5c0.7-0.5,1.2-1.1,1.4-1.8c0.2-0.8,0.2-1.5-0.1-2.2c-0.3-0.7-0.9-1.1-1.6-1.2
								C368.4,520.5,368.1,520.5,367.8,520.6 M362.1,531.8C362.1,531.8,362.1,531.8,362.1,531.8c-2,0.3-3.4-0.4-4.2-2
								c-0.8-1.6-0.6-3.2,0.6-5c1.2-1.8,3.5-3.7,6.9-5.9c3.3-2.1,6-3.4,8-3.6c0,0,0,0,0,0c2-0.3,3.4,0.4,4.2,1.9
								c0.8,1.6,0.6,3.2-0.5,5c-1.2,1.8-3.5,3.7-6.9,5.9C366.8,530.3,364.1,531.5,362.1,531.8 M373,512.3c-2.6,0.4-5.7,1.6-9.1,3.8
								c-3.9,2.5-6.6,5.1-8.1,7.7c-1.5,2.7-1.6,5.2-0.4,7.5c1.3,2.5,3.3,3.6,6.2,3.4c0.3,0,0.6,0,0.9-0.1c2.6-0.4,5.6-1.6,9-3.8
								c3.9-2.5,6.6-5.1,8.1-7.7c1.5-2.7,1.6-5.2,0.4-7.6c-1.3-2.4-3.3-3.6-6.2-3.4C373.6,512.2,373.3,512.3,373,512.3"/>
							<polyline points="340.5,533.5 337.7,535 342.1,538.4 323.1,548.9 321.1,543.9 318.6,545.3 323.8,557.6 326.2,556.3 
								324.3,551.6 346.3,539.4 345.4,537 340.5,533.5 							"/>
							<path d="M304.8,548.5c-0.7,0.1-1.3,0.4-1.8,1c-0.6,0.6-0.8,1.3-0.8,2.2c0,0.8,0.3,1.5,0.8,2c0.5,0.5,1.2,0.7,2,0.6
								c0,0,0,0,0.1,0c0.7-0.1,1.4-0.5,1.9-1.1c0.6-0.6,0.9-1.3,0.9-2.1c0-0.8-0.2-1.4-0.8-1.9c-0.6-0.5-1.2-0.7-2-0.7
								C304.9,548.5,304.8,548.5,304.8,548.5 M309.4,560.2c-0.6,0.1-1.1,0-1.7-0.1c-1.8-0.4-4.1-1.8-6.7-4.3
								c-2.6-2.5-4.2-4.6-4.8-6.4s-0.2-3.5,1.2-5c0.9-1,1.9-1.5,3-1.7c0.6-0.1,1.2,0,1.8,0.1c1.9,0.4,4.1,1.8,6.7,4.3
								c2.6,2.4,4.1,4.5,4.7,6.4c0.6,1.9,0.2,3.5-1.1,5C311.6,559.4,310.6,560,309.4,560.2 M300.6,539.8c-1.9,0.3-3.6,1.2-5.1,2.9
								c-2.1,2.3-2.8,4.8-2.2,7.6c0.6,2.7,2.4,5.5,5.3,8.2c3,2.8,5.8,4.3,8.6,4.7c0.7,0.1,1.4,0.1,2.1,0c1.9-0.3,3.6-1.2,5.1-2.9
								c2.1-2.3,2.8-4.8,2.2-7.6c-0.6-2.8-2.4-5.5-5.3-8.2c-3-2.8-5.8-4.3-8.6-4.6C301.9,539.7,301.3,539.7,300.6,539.8"/>
							<polyline points="286,506.7 273.9,515.1 275.1,517.3 279.7,514.2 291,533.9 293.3,532.3 296.9,526.4 295.5,523.8 
								292.1,529.2 282.4,512.3 287.3,508.9 286,506.7 							"/>
							<path d="M268.8,486.6c-0.4,0.1-0.8,0.2-1.2,0.5c-0.7,0.5-1.1,1.1-1.3,1.9c-0.2,0.8-0.1,1.6,0.2,2.2c0.4,0.7,0.9,1,1.6,1.2
								c0.3,0,0.5,0.1,0.8,0c0.4-0.1,0.9-0.2,1.3-0.5c0.7-0.5,1.2-1.1,1.4-1.9c0.2-0.8,0.2-1.5-0.2-2.1c-0.4-0.7-0.9-1.1-1.7-1.3
								C269.4,486.6,269.1,486.6,268.8,486.6 M271.8,499.7c-0.9,0.1-1.8-0.1-2.7-0.6c-1.6-0.9-3.3-3-5.1-6.2
								c-1.8-3.2-2.7-5.8-2.7-7.8c0-2,0.8-3.5,2.4-4.6c0.7-0.5,1.4-0.8,2.1-0.9c0.9-0.1,1.8,0.1,2.7,0.6c1.6,0.9,3.3,3,5,6.2
								c1.7,3.1,2.6,5.7,2.7,7.7c0,2-0.8,3.6-2.4,4.7C273.2,499.3,272.5,499.6,271.8,499.7 M266.1,476.8c-1.2,0.2-2.4,0.6-3.5,1.4
								c-2.5,1.7-3.9,4-4,7c-0.2,2.9,0.7,6.1,2.7,9.6c2,3.6,4.2,6,6.7,7.1c1.3,0.6,2.5,0.8,3.8,0.6c1.2-0.2,2.4-0.6,3.6-1.4
								c2.5-1.7,3.9-4,4-7c0.2-2.9-0.7-6.2-2.7-9.7c-2-3.6-4.2-6-6.7-7.1C268.6,476.8,267.4,476.6,266.1,476.8"/>
							<polyline points="251.6,442.7 239.1,450.6 240.3,452.8 245,449.9 255.3,470.3 257.6,468.8 261.5,463 260.2,460.4 
								256.6,465.7 247.7,448.1 252.8,445 251.6,442.7 							"/>
							<path d="M239.7,420.5c-0.2,0-0.3,0.1-0.5,0.1c-0.8,0.2-1.4,0.7-1.8,1.5c-0.4,0.7-0.6,1.5-0.5,2.3c0.1,0.8,0.5,1.3,1.1,1.7
								c0.5,0.3,1,0.4,1.5,0.3c0.2,0,0.4-0.1,0.6-0.1c0.8-0.2,1.4-0.7,1.8-1.4c0.4-0.7,0.6-1.4,0.4-2.2c-0.1-0.8-0.5-1.4-1.2-1.8
								C240.8,420.6,240.3,420.5,239.7,420.5 M240.7,434.5c-1.4,0.2-2.6-0.3-3.6-1.5c-1.2-1.4-2.1-4-2.7-7.8
								c-0.7-3.7-0.7-6.6-0.1-8.6c0.6-2,1.8-3.3,3.6-3.9c0.3-0.1,0.6-0.2,0.9-0.2c1.4-0.2,2.6,0.3,3.6,1.5c1.2,1.4,2.1,4,2.7,7.7
								c0.6,3.7,0.7,6.5,0.1,8.5c-0.6,2-1.8,3.3-3.5,3.9C241.3,434.4,241,434.5,240.7,434.5 M238.9,409.8c-0.5,0.1-1,0.2-1.5,0.4
								c-2.8,0.9-4.7,2.8-5.8,5.7c-1,2.9-1.2,6.4-0.4,10.5c0.7,4.2,2.1,7.3,3.9,9.2c1.5,1.5,3.3,2.1,5.4,1.8c0.5-0.1,1-0.2,1.5-0.4
								c2.8-0.9,4.7-2.8,5.7-5.7c1-2.9,1.2-6.4,0.5-10.5c-0.7-4.2-2.1-7.3-4-9.2C242.8,410.2,241,409.5,238.9,409.8"/>
							<polyline points="234.9,372.4 234.4,375.1 239.5,375.3 235.1,399.8 237.7,399.9 243.8,397.2 244.4,394.1 238.7,396.5 
								242.5,375.5 248,375.8 248.5,373 234.9,372.4 							"/>
							<path d="M254.1,347.6c-0.1,0-0.3,0.1-0.4,0.1c-0.8,0.2-1.4,0.7-2,1.4c-0.5,0.7-0.7,1.4-0.6,2.2c0.1,0.8,0.4,1.4,1,1.8
								c0.5,0.4,1.1,0.5,1.7,0.4c0.1,0,0.2,0,0.3-0.1c0.7-0.2,1.4-0.6,1.9-1.3c0.5-0.7,0.7-1.5,0.7-2.3c-0.1-0.8-0.4-1.4-1-1.8
								C255.3,347.7,254.7,347.5,254.1,347.6 M249.6,360.9c-0.9,0.1-1.8-0.1-2.6-0.6c-1.4-1-1.9-2.5-1.6-4.5c0.4-2,1.8-4.7,4.2-8.1
								c2.4-3.4,4.5-5.6,6.3-6.7c0.7-0.4,1.5-0.7,2.1-0.8c1-0.1,1.9,0.1,2.7,0.7c1.4,1,1.9,2.5,1.5,4.5c-0.4,2-1.8,4.7-4.2,8.1
								c-2.3,3.3-4.4,5.5-6.2,6.6C251,360.5,250.3,360.8,249.6,360.9 M257.9,337.4c-0.9,0.1-1.9,0.4-2.8,1c-2.7,1.4-5.3,4-7.9,7.7
								c-2.7,3.8-4.2,7.2-4.6,10.1c-0.3,2.9,0.6,5.1,2.7,6.6c1.4,1,2.9,1.3,4.5,1.1c0.9-0.1,1.9-0.4,2.8-1c2.7-1.4,5.3-4,8-7.7
								c2.7-3.8,4.2-7.2,4.6-10.1c0.3-2.9-0.6-5.1-2.8-6.5C261,337.5,259.5,337.2,257.9,337.4"/>
							<path d="M283.1,322.9c-0.3,0-0.7,0.2-1,0.3c-0.7,0.4-1.3,0.9-1.6,1.7c-0.3,0.7-0.4,1.5-0.1,2.2s0.7,1.2,1.4,1.4
								c0.4,0.1,0.8,0.2,1.2,0.1c0.3,0,0.6-0.1,1-0.3c0.8-0.4,1.3-0.9,1.7-1.7c0.4-0.8,0.4-1.5,0.2-2.2c-0.2-0.7-0.7-1.2-1.4-1.4
								C283.9,322.9,283.5,322.8,283.1,322.9 M277.6,333.2c-0.4,0.1-0.8,0.1-1.1,0.1c-2,0-3.2-0.8-3.8-2.5c-0.6-1.7-0.2-3.3,1.2-5
								c1.4-1.6,3.9-3.3,7.5-5.1c3-1.4,5.4-2.3,7.2-2.5c0.4-0.1,0.8-0.1,1.1-0.1c1.9,0,3.2,0.9,3.8,2.6c0.6,1.7,0.2,3.3-1.2,5
								c-1.4,1.6-3.9,3.3-7.5,5.1C281.8,332.1,279.4,332.9,277.6,333.2 M287.7,315.2c-2.2,0.3-4.7,1.1-7.5,2.5c-4.1,2-7,4.2-8.8,6.7
								c-1.8,2.5-2.2,5-1.3,7.6c0.9,2.6,2.8,4.1,5.6,4.3c0.8,0.1,1.7,0,2.6-0.1c2.2-0.3,4.7-1.1,7.5-2.5c4.1-2,7-4.2,8.8-6.7
								c1.8-2.5,2.2-5,1.3-7.6c-0.9-2.6-2.8-4.1-5.6-4.3C289.5,315.1,288.6,315.1,287.7,315.2"/>
							<path d="M318.2,317.2c-0.5,0.1-0.9,0.2-1.3,0.5c-0.7,0.5-1.1,1.1-1.3,1.9c-0.2,0.8-0.1,1.5,0.2,2.1c0.4,0.6,0.9,1,1.7,1.1
								c0.3,0,0.6,0,0.9,0c0.5-0.1,0.9-0.2,1.4-0.5c0.7-0.5,1.2-1.1,1.4-1.9c0.2-0.8,0.1-1.5-0.3-2.1c-0.4-0.6-1-1-1.8-1.1
								C318.7,317.2,318.4,317.2,318.2,317.2 M323.3,325.7c-1.8,0.2-4,0.2-6.6-0.3c-3.6-0.5-6.1-1.4-7.6-2.6
								c-1.5-1.2-1.9-2.7-1.4-4.5c0.5-1.9,1.7-3.1,3.6-3.8c0.5-0.2,1.1-0.3,1.7-0.4c1.7-0.2,4-0.1,6.6,0.3c3.7,0.6,6.2,1.4,7.6,2.6
								c1.4,1.2,1.9,2.7,1.4,4.6c-0.5,1.9-1.7,3.1-3.7,3.8C324.5,325.5,324,325.7,323.3,325.7 M313.9,311c-1.3,0.2-2.5,0.5-3.6,1
								c-2.7,1.2-4.5,3.2-5.2,6c-0.8,2.9-0.2,5.3,1.7,7.1c2,1.8,4.9,3.1,9,3.7c2.5,0.4,4.7,0.4,6.6,0.2c1.3-0.2,2.6-0.5,3.7-1
								c2.7-1.2,4.5-3.2,5.2-6c0.8-2.9,0.2-5.3-1.7-7.1c-2-1.8-4.9-3.1-9-3.7C318.1,310.8,315.9,310.7,313.9,311"/>
						</g>
					</g>
				</g>
			</g>
		</g>
	</g>
</g>
<g>
	<g>
		<g class="st0">
			<defs>
				<polygon id="SVGID_3_" class="st0" points="84.6,500.1 86.4,258.5 347.3,223.1 345.5,464.8 				"/>
			</defs>
			<clipPath id="SVGID_4_">
				<use xlink:href="#SVGID_3_"  style="overflow:visible;"/>
			</clipPath>
			<g class="st2">
				<g>
					<g>
						<g>
							<polyline points="199.5,263.9 197.4,265.8 194.5,272 196.3,274.3 199,268.6 211,283.8 206.5,287.8 208,289.7 219.2,279.9 
								217.7,277.9 213.5,281.6 199.5,263.9 							"/>
							<polyline points="236.9,250.1 235.1,252.3 238.8,255.5 222,275.1 223.9,276.8 230,277.8 232.2,275.3 226.6,274.2 
								240.9,257.4 244.9,260.8 246.8,258.6 236.9,250.1 							"/>
							<path d="M264.3,241.1c-0.2,0-0.4,0.1-0.7,0.2c-0.8,0.3-1.4,0.8-1.8,1.5c-0.4,0.7-0.5,1.4-0.4,2.2c0.2,0.8,0.6,1.3,1.2,1.6
								c0.4,0.2,0.9,0.3,1.4,0.2c0.2,0,0.4-0.1,0.7-0.2c0.8-0.3,1.4-0.8,1.9-1.5c0.5-0.7,0.6-1.5,0.4-2.2c-0.2-0.7-0.6-1.3-1.3-1.6
								C265.3,241.1,264.8,241,264.3,241.1 M259.5,250.7c-1,0.1-1.8,0.2-2.6,0.1c-1.9-0.2-3.1-1.2-3.5-3c-0.4-1.8,0.2-3.4,1.7-4.9
								c1.5-1.5,4.1-2.9,7.9-4.2c2.3-0.8,4.3-1.4,5.9-1.6c1-0.1,1.8-0.2,2.5-0.1c1.9,0.3,3,1.3,3.4,3c0.4,1.8-0.2,3.4-1.7,4.9
								c-1.5,1.5-4.2,2.9-7.9,4.2C263,250,261.1,250.5,259.5,250.7 M268,234.1c-1.7,0.2-3.6,0.7-5.6,1.4c-4.2,1.5-7.4,3.4-9.4,5.7
								c-2,2.3-2.8,4.8-2.2,7.5c0.6,2.8,2.2,4.4,4.9,5c1.4,0.3,2.9,0.3,4.6,0.1s3.6-0.7,5.6-1.4c4.2-1.5,7.4-3.4,9.4-5.7
								c2-2.3,2.7-4.8,2.2-7.5c-0.6-2.8-2.2-4.4-4.9-5C271.2,233.9,269.7,233.8,268,234.1"/>
							<path d="M299.5,238.7c-0.4,0.1-0.8,0.2-1.1,0.4c-0.7,0.4-1.2,1-1.5,1.8c-0.3,0.8-0.3,1.5,0,2.2c0.3,0.7,0.8,1.1,1.6,1.3
								c0.4,0.1,0.7,0.1,1.1,0.1c0.4-0.1,0.7-0.2,1.1-0.4c0.7-0.4,1.2-1,1.5-1.7c0.3-0.8,0.3-1.5-0.1-2.2c-0.3-0.7-0.9-1.1-1.6-1.3
								C300.1,238.7,299.8,238.7,299.5,238.7 M305,247.8c-1.9,0.3-4.4,0-7.4-0.8c-3.5-0.9-5.9-2-7.2-3.3c-1.3-1.3-1.7-2.9-1-4.7
								c0.7-1.8,2-3,3.9-3.5c0.3-0.1,0.5-0.1,0.8-0.2c1.9-0.3,4.3,0,7.4,0.8c3.6,0.9,6,2,7.3,3.3c1.3,1.3,1.6,2.9,0.9,4.7
								c-0.7,1.8-2,3-3.9,3.5C305.5,247.7,305.2,247.7,305,247.8 M294.7,232.2c-0.8,0.1-1.6,0.3-2.3,0.5c-2.8,0.9-4.7,2.8-5.7,5.6
								c-1,2.9-0.7,5.3,1.1,7.4c1.8,2.1,4.6,3.6,8.5,4.6c3,0.8,5.6,1,7.9,0.7c0.8-0.1,1.6-0.3,2.3-0.5c2.8-0.9,4.7-2.8,5.7-5.6
								c1-2.9,0.7-5.3-1.1-7.4c-1.8-2-4.6-3.6-8.5-4.6C299.7,232.1,297,231.9,294.7,232.2"/>
							<polyline points="321.5,248.3 319.4,250.1 316.4,256.3 318.2,258.6 321,252.9 332.8,268.3 328.2,272.2 329.8,274.2 
								341.1,264.4 339.5,262.4 335.3,266.1 321.5,248.3 							"/>
							<polyline points="340.5,278.6 337.8,279.1 332.3,283.1 332.4,286.2 337.5,282.6 338.4,303.3 332.8,304.3 332.9,307 
								346.7,304.4 346.6,301.7 341.4,302.7 340.5,278.6 							"/>
							<path d="M330.9,326.5c-0.3,0-0.6,0.1-0.9,0.3c-0.7,0.4-1.2,0.9-1.6,1.7c-0.3,0.8-0.4,1.6-0.2,2.3c0.2,0.7,0.7,1.2,1.4,1.5
								c0.4,0.1,0.7,0.2,1.1,0.1c0.3,0,0.7-0.2,1-0.4c0.7-0.4,1.3-1,1.6-1.8c0.3-0.8,0.4-1.5,0.1-2.2c-0.3-0.7-0.7-1.2-1.4-1.4
								C331.6,326.5,331.3,326.4,330.9,326.5 M328.1,340.4c-0.6,0.1-1.3,0-1.9-0.2c-1.7-0.6-2.5-1.8-2.6-3.9c0-2,0.7-4.9,2.4-8.6
								c1.6-3.7,3.2-6.2,4.8-7.7c1-0.9,1.9-1.4,2.9-1.6c0.6-0.1,1.2,0,1.9,0.2c1.7,0.6,2.5,1.8,2.6,3.8c0.1,2-0.7,4.8-2.4,8.6
								c-1.6,3.7-3.2,6.3-4.8,7.8C330.1,339.7,329.1,340.2,328.1,340.4 M333.5,315.6c-1.4,0.2-2.8,0.8-4.2,2c-2.4,2-4.5,5-6.3,9.1
								c-1.9,4.3-2.6,7.8-2.3,10.6c0.3,2.8,1.8,4.6,4.3,5.5c1.1,0.4,2.2,0.5,3.3,0.4c1.4-0.2,2.8-0.8,4.2-2c2.4-2,4.4-5,6.2-9.1
								c1.9-4.2,2.6-7.8,2.3-10.6c-0.3-2.8-1.7-4.6-4.3-5.5C335.7,315.6,334.6,315.5,333.5,315.6"/>
							<path d="M297.1,382c-0.1,0-0.2,0-0.3,0.1c-0.7,0.2-1.4,0.6-1.9,1.3c-0.5,0.7-0.7,1.5-0.7,2.3c0.1,0.8,0.4,1.4,1,1.8
								c0.5,0.3,1,0.5,1.7,0.4c0.1,0,0.3,0,0.4-0.1c0.8-0.2,1.4-0.7,2-1.4c0.5-0.7,0.7-1.4,0.6-2.2c-0.1-0.8-0.4-1.4-1-1.8
								C298.3,382,297.8,381.9,297.1,382 M292.9,395.2c-1,0.1-1.9-0.1-2.7-0.7c-1.4-1-1.9-2.5-1.5-4.5c0.4-2,1.8-4.7,4.2-8
								c2.4-3.3,4.5-5.5,6.3-6.6c0.8-0.5,1.5-0.7,2.2-0.8c1-0.1,1.8,0.1,2.7,0.6c1.4,1,1.9,2.5,1.5,4.5c-0.4,2-1.8,4.7-4.3,8
								c-2.4,3.4-4.5,5.6-6.3,6.6C294.3,394.8,293.6,395.1,292.9,395.2 M301.2,371.7c-0.9,0.1-1.8,0.4-2.8,0.9
								c-2.7,1.4-5.4,3.9-8,7.6c-2.7,3.8-4.3,7.2-4.6,10.1c-0.3,2.9,0.6,5.1,2.7,6.6c1.4,1,3,1.4,4.6,1.2c0.9-0.1,1.8-0.4,2.8-0.9
								c2.7-1.4,5.3-3.9,8-7.6c2.7-3.8,4.3-7.2,4.6-10.1c0.4-2.9-0.5-5.1-2.7-6.6C304.4,371.9,302.9,371.5,301.2,371.7"/>
							<path d="M271.6,414c-0.8,0.1-1.4,0.5-2,1.1c-0.6,0.7-0.9,1.4-0.9,2.2c0,0.8,0.2,1.5,0.8,1.9c0.5,0.5,1.1,0.6,1.9,0.5
								c0,0,0.1,0,0.1,0c0.8-0.1,1.5-0.5,2.1-1.2c0.6-0.6,0.8-1.3,0.8-2.1c0-0.8-0.3-1.4-0.8-1.9C273,414.1,272.4,413.9,271.6,414
								 M266.9,426.8c-1.1,0.2-2.2-0.2-3-0.9c-1.3-1.1-1.6-2.7-1-4.7c0.6-2,2.3-4.5,5-7.6c2.7-3.1,4.9-5,6.8-5.9
								c0.6-0.3,1.2-0.5,1.8-0.6c1.1-0.2,2.1,0.1,3,0.9c1.3,1.1,1.6,2.7,1,4.7c-0.6,2-2.3,4.5-5,7.7c-2.7,3.1-5,5.1-6.9,6
								C268,426.6,267.4,426.7,266.9,426.8 M276.3,404.1c-0.7,0.1-1.4,0.3-2.1,0.6c-2.8,1.1-5.7,3.4-8.6,6.8
								c-3.1,3.5-4.9,6.8-5.6,9.6c-0.6,2.9,0,5.2,2,6.9c1.5,1.3,3.2,1.9,5.1,1.6c0.7-0.1,1.4-0.3,2.1-0.6c2.8-1.1,5.6-3.4,8.6-6.8
								c3.1-3.5,4.9-6.8,5.6-9.7c0.6-2.9,0-5.2-2-6.9C279.9,404.4,278.2,403.9,276.3,404.1"/>
							<polyline points="247.8,434.8 245.4,437.1 250.8,438.7 235.2,454.4 231.6,450.5 229.5,452.6 238.4,462.1 240.5,460.1 
								237.1,456.5 255.3,438.3 253.7,436.5 247.8,434.8 							"/>
							<path d="M215.2,470.1c-0.2,0-0.5,0.1-0.8,0.2c-0.8,0.3-1.4,0.8-1.8,1.6c-0.4,0.7-0.6,1.5-0.4,2.2c0.2,0.7,0.6,1.3,1.3,1.6
								c0.5,0.2,0.9,0.3,1.4,0.2c0.3,0,0.5-0.1,0.8-0.2c0.8-0.3,1.3-0.8,1.7-1.5c0.4-0.7,0.5-1.5,0.3-2.2c-0.2-0.8-0.6-1.3-1.2-1.6
								C216.1,470.1,215.7,470.1,215.2,470.1 M210.1,480.1c-0.8,0.1-1.5,0.1-2.1,0.1c-1.9-0.2-3.1-1.1-3.5-2.9
								c-0.4-1.8,0.1-3.4,1.6-4.9s4.1-3,7.8-4.5c2.5-1,4.6-1.6,6.3-1.8c0.8-0.1,1.5-0.1,2.1-0.1c1.9,0.2,3.1,1.1,3.6,2.9
								c0.4,1.8-0.1,3.4-1.5,4.9c-1.5,1.5-4.1,3-7.8,4.5C213.9,479.2,211.8,479.8,210.1,480.1 M219.3,463c-1.9,0.3-3.9,0.8-6.2,1.7
								c-4.2,1.7-7.3,3.7-9.2,6s-2.6,4.9-1.9,7.5c0.7,2.8,2.4,4.3,5.1,4.8c1.2,0.2,2.5,0.2,4,0c1.9-0.3,3.9-0.8,6.2-1.7
								c4.2-1.7,7.3-3.7,9.2-6c2-2.3,2.6-4.8,2-7.5c-0.7-2.7-2.4-4.3-5.1-4.8C222.1,462.8,220.7,462.8,219.3,463"/>
							<polyline points="185.1,447.3 175.4,458.8 177.3,460.4 181,456.1 197.9,470.8 199.7,468.6 201.6,462.1 199.5,460.2 
								197.6,466.2 183.1,453.6 187,449 185.1,447.3 							"/>
							<path d="M163,434c-0.7,0.1-1.4,0.4-1.9,1c-0.6,0.6-0.8,1.3-0.8,2.2c0,0.8,0.3,1.5,0.9,2c0.6,0.5,1.2,0.7,2,0.6
								c0.8-0.1,1.4-0.5,2-1.1c0.6-0.6,0.8-1.3,0.8-2.1c0-0.8-0.3-1.4-0.8-1.9c-0.6-0.5-1.2-0.7-2-0.6C163.1,434,163.1,434,163,434
								 M167.8,445.5c-0.5,0.1-1.1,0.1-1.7-0.1c-1.9-0.4-4.1-1.7-6.8-4.1c-2.7-2.4-4.3-4.5-4.9-6.3c-0.6-1.8-0.2-3.5,1.1-5
								c0.9-1,1.9-1.6,3-1.7c0.5-0.1,1.1,0,1.7,0.1c1.9,0.4,4.1,1.8,6.8,4.1c2.6,2.3,4.2,4.4,4.8,6.3c0.6,1.8,0.3,3.5-1,5
								C169.9,444.8,168.9,445.4,167.8,445.5 M158.7,425.4c-1.9,0.3-3.6,1.2-5.1,3c-2,2.4-2.7,4.9-2,7.6c0.7,2.7,2.5,5.4,5.4,8
								c3,2.7,5.9,4.2,8.7,4.5c0.7,0.1,1.3,0.1,1.9,0c1.9-0.3,3.6-1.2,5.1-3c2-2.3,2.7-4.9,2-7.6c-0.7-2.7-2.5-5.4-5.4-8
								c-3-2.7-5.9-4.2-8.7-4.5C160,425.3,159.4,425.3,158.7,425.4"/>
							<polyline points="132.2,399.3 122.1,410.4 124,412.1 127.7,408 144.1,423.2 146,421.1 148.1,414.7 146,412.7 144,418.6 
								130,405.5 134,401 132.2,399.3 							"/>
							<path d="M112.2,384.2c-0.5,0.1-1,0.3-1.4,0.7c-0.6,0.5-1,1.2-1.2,2c-0.1,0.8,0,1.5,0.5,2.2c0.4,0.6,1,0.9,1.8,1
								c0.2,0,0.3,0,0.5,0c0.6-0.1,1.1-0.3,1.6-0.7c0.6-0.5,1-1.2,1.2-2c0.1-0.8,0-1.5-0.5-2.1c-0.5-0.6-1.1-1-1.8-1
								C112.6,384.2,112.4,384.2,112.2,384.2 M115.9,396.8c-0.8,0.1-1.5,0-2.4-0.4c-1.7-0.7-3.6-2.5-5.8-5.5
								c-2.1-2.9-3.3-5.4-3.6-7.3c-0.2-1.9,0.4-3.6,1.9-4.8c0.8-0.7,1.6-1,2.4-1.2c0.8-0.1,1.6,0,2.4,0.4c1.7,0.7,3.6,2.6,5.8,5.5
								c2.1,2.9,3.3,5.3,3.5,7.3c0.3,2-0.4,3.6-1.9,4.8C117.6,396.2,116.8,396.6,115.9,396.8 M108.9,374.8c-1.4,0.2-2.8,0.8-4.2,2
								c-2.4,2-3.5,4.4-3.3,7.3c0.2,2.9,1.4,5.9,3.8,9.1c2.4,3.3,4.9,5.4,7.5,6.2c1.1,0.3,2.1,0.4,3.2,0.3c1.4-0.2,2.8-0.8,4.2-2
								c2.4-2,3.5-4.4,3.3-7.3c-0.2-2.9-1.4-5.9-3.8-9.2c-2.4-3.3-4.9-5.4-7.5-6.2C110.9,374.7,109.9,374.6,108.9,374.8"/>
							<polyline points="100,340.3 86.6,345.7 87.3,348.3 92.3,346.2 98.2,368.9 100.7,367.9 105.5,362.9 104.8,360 100.3,364.5 
								95.3,345.1 100.7,342.9 100,340.3 							"/>
							<path d="M94.9,315.6c-0.6,0.1-1.2,0.4-1.7,0.8c-0.6,0.6-1,1.3-1.1,2.1c-0.1,0.8,0,1.5,0.5,2.1c0.5,0.6,1.1,0.8,1.8,0.9
								c0.2,0,0.3,0,0.4,0c0.6-0.1,1.1-0.3,1.6-0.8c0.6-0.5,1-1.2,1.1-2.1c0.1-0.8,0-1.5-0.5-2.1c-0.4-0.6-1-0.9-1.8-0.9
								C95.2,315.6,95,315.6,94.9,315.6 M93.9,329.8c-0.2,0-0.5,0-0.7,0c-1.8,0-3-0.9-3.7-2.7c-0.6-1.8-0.6-4.7-0.1-8.6
								c0.6-3.9,1.4-6.8,2.6-8.6c1-1.5,2.2-2.4,3.7-2.6c0.2,0,0.5,0,0.7,0c1.8,0,3,0.9,3.6,2.8c0.6,1.8,0.6,4.7,0.1,8.6
								c-0.6,3.9-1.4,6.7-2.6,8.5C96.6,328.8,95.3,329.6,93.9,329.8 M95.5,304.6c-2.3,0.3-4.2,1.5-5.7,3.6c-1.8,2.5-3,5.9-3.6,10.2
								c-0.6,4.5-0.4,7.9,0.7,10.4c1.1,2.5,3.1,3.7,5.8,3.8c0.4,0,0.9,0,1.3-0.1c2.3-0.3,4.1-1.5,5.7-3.6c1.8-2.5,3-5.9,3.7-10.3
								c0.6-4.5,0.4-7.9-0.7-10.4c-1.1-2.5-3.1-3.7-5.8-3.8C96.4,304.6,95.9,304.6,95.5,304.6"/>
							<path d="M110.3,280.9c-0.1,0-0.2,0-0.3,0.1c-0.8,0.2-1.5,0.6-2,1.3c-0.5,0.7-0.8,1.4-0.7,2.2c0,0.8,0.4,1.4,0.9,1.8
								c0.5,0.4,1.1,0.6,1.8,0.5c0.1,0,0.1,0,0.2,0c0.7-0.2,1.4-0.6,1.9-1.2c0.5-0.7,0.8-1.4,0.8-2.2c0-0.8-0.3-1.4-0.9-1.9
								C111.5,281,110.9,280.8,110.3,280.9 M105.5,294c-1,0.1-2-0.1-2.8-0.8c-1.4-1-1.8-2.6-1.3-4.6c0.5-2,2-4.6,4.6-7.9
								s4.7-5.4,6.6-6.4c0.7-0.4,1.3-0.6,2-0.7c1-0.1,2,0.1,2.8,0.8c1.4,1.1,1.8,2.6,1.3,4.6c-0.5,2-2,4.6-4.5,7.9
								c-2.5,3.2-4.7,5.3-6.5,6.3C106.8,293.6,106.2,293.9,105.5,294 M114.3,270.8c-0.8,0.1-1.6,0.4-2.5,0.8
								c-2.7,1.3-5.5,3.7-8.3,7.3c-2.9,3.7-4.6,7-5,9.9c-0.5,2.9,0.3,5.2,2.4,6.7c1.5,1.1,3,1.6,4.8,1.3c0.8-0.1,1.6-0.4,2.5-0.8
								c2.7-1.3,5.5-3.7,8.3-7.3c2.9-3.7,4.6-7,5-9.9c0.5-2.9-0.3-5.1-2.4-6.7C117.6,271,116,270.6,114.3,270.8"/>
							<path d="M140.2,257.8c-0.3,0-0.5,0.1-0.8,0.2c-0.8,0.3-1.3,0.8-1.7,1.5c-0.4,0.7-0.5,1.5-0.3,2.2c0.2,0.8,0.6,1.3,1.3,1.6
								c0.4,0.2,0.9,0.3,1.4,0.2c0.3,0,0.5-0.1,0.8-0.2c0.8-0.3,1.4-0.8,1.8-1.6c0.4-0.7,0.5-1.5,0.4-2.2c-0.2-0.7-0.6-1.3-1.3-1.5
								C141.2,257.8,140.7,257.8,140.2,257.8 M135.1,267.6c-0.8,0.1-1.5,0.1-2.1,0.1c-1.9-0.2-3.1-1.1-3.6-2.8
								c-0.4-1.8,0.1-3.4,1.5-4.9c1.5-1.5,4.1-3,7.8-4.5c2.6-1,4.7-1.6,6.4-1.9c0.8-0.1,1.4-0.1,2-0.1c1.9,0.2,3.1,1.1,3.5,2.9
								c0.4,1.7-0.1,3.4-1.6,4.9c-1.5,1.5-4.1,3-7.8,4.5C138.9,266.8,136.8,267.4,135.1,267.6 M144.3,250.6c-1.9,0.3-4,0.8-6.3,1.8
								c-4.2,1.7-7.3,3.7-9.2,6c-2,2.4-2.6,4.9-1.9,7.5c0.7,2.7,2.4,4.3,5.1,4.8c1.2,0.2,2.5,0.2,3.9,0c1.9-0.3,4-0.8,6.3-1.8
								c4.2-1.7,7.3-3.7,9.2-6c1.9-2.4,2.6-4.9,1.9-7.5c-0.7-2.7-2.4-4.3-5.1-4.8C147,250.4,145.7,250.4,144.3,250.6"/>
							<path d="M175.5,254.6c-0.4,0.1-0.8,0.2-1.2,0.5c-0.7,0.4-1.2,1.1-1.4,1.8c-0.3,0.8-0.2,1.5,0.1,2.1c0.3,0.6,0.9,1,1.6,1.2
								c0.3,0.1,0.7,0.1,1,0c0.4-0.1,0.8-0.2,1.2-0.5c0.7-0.4,1.2-1,1.4-1.8c0.3-0.8,0.2-1.5-0.2-2.2c-0.4-0.7-0.9-1.1-1.7-1.2
								C176.1,254.5,175.8,254.5,175.5,254.6 M180.9,263.3c-1.8,0.2-4.2,0.1-7.1-0.5c-3.5-0.7-6-1.7-7.4-3c-1.4-1.3-1.8-2.8-1.2-4.6
								c0.6-1.9,1.9-3.1,3.8-3.6c0.4-0.1,0.8-0.2,1.2-0.3c1.8-0.2,4.2-0.1,7.1,0.5c3.6,0.7,6.1,1.7,7.5,3c1.4,1.2,1.7,2.8,1.2,4.7
								c-0.6,1.8-1.9,3-3.8,3.6C181.7,263.2,181.3,263.3,180.9,263.3 M170.9,248.2c-1,0.1-2,0.4-2.9,0.7c-2.7,1-4.6,3-5.5,5.8
								c-0.9,2.9-0.5,5.3,1.4,7.3c1.8,2,4.8,3.3,8.7,4.2c2.8,0.6,5.2,0.7,7.3,0.4c1-0.1,2-0.4,2.9-0.7c2.8-1,4.6-3,5.5-5.8
								c0.9-2.9,0.5-5.3-1.4-7.3s-4.8-3.3-8.7-4.2C175.6,248,173.1,247.9,170.9,248.2"/>
						</g>
					</g>
				</g>
			</g>
		</g>
	</g>
</g>
<g>
</g>
</svg>
