<svg id="Layer_1" data-name="Layer 1" xmlns="http://www.w3.org/2000/svg" xmlns:xlink="http://www.w3.org/1999/xlink" viewBox="0 0 595.28 841.89"><defs><style>.cls-1{fill:none;}.cls-2{isolation:isolate;}.cls-3{clip-path:url(#clip-path);}.cls-4{clip-path:url(#clip-path-2);}.cls-5{clip-path:url(#clip-path-3);}.cls-6{fill:#231f20;}.cls-7{clip-path:url(#clip-path-4);}</style><clipPath id="clip-path"><polygon class="cls-1" points="88.78 453.2 105.71 145.34 417.88 154.64 400.95 462.49 88.78 453.2"/></clipPath><clipPath id="clip-path-2"><polyline class="cls-1" points="88.78 453.2 125.89 162.75 417.88 154.64 380.78 445.08 88.78 453.2"/></clipPath><clipPath id="clip-path-3"><polyline class="cls-1" points="88.78 453.2 155.84 174 417.88 154.64 350.82 433.82 88.78 453.2"/></clipPath><clipPath id="clip-path-4"><polygon class="cls-1" points="194.83 639.1 196.68 387.4 451.63 352.9 449.78 604.6 194.83 639.1"/></clipPath></defs><title>keyvisual01</title><g class="cls-2"><g class="cls-3"><g class="cls-4"><g class="cls-5"><path class="cls-6" d="M167,422.74h-.19a2.27,2.27,0,0,0-.61.12,3.06,3.06,0,0,0-1.55,1.18,2.61,2.61,0,0,0-.56,1.77,1.55,1.55,0,0,0,.78,1.31,1.49,1.49,0,0,0,.74.22h.2a2.87,2.87,0,0,0,.65-.15A3.32,3.32,0,0,0,168,426a2.75,2.75,0,0,0,.58-1.73,1.43,1.43,0,0,0-.73-1.26,1.85,1.85,0,0,0-.85-.24m1.56,8.23a11.54,11.54,0,0,1-5.15-1.82c-2.23-1.28-3.61-2.55-4.16-3.8a3.84,3.84,0,0,1,.67-4,4.75,4.75,0,0,1,3.59-2.15h.56a11.43,11.43,0,0,1,5.16,1.81c2.18,1.26,3.56,2.52,4.11,3.79a3.78,3.78,0,0,1-.63,3.94,4.71,4.71,0,0,1-3.59,2.17h-.56m-3.24-14.15h-.48l-.38,0c-.2,0-.38,0-.58.06a8.16,8.16,0,0,0-5.53,3.61c-1.54,2.14-2,4.17-1.33,6.08a9.56,9.56,0,0,0,4.66,5,12,12,0,0,0,5.65,1.8h.48l.39,0,.57-.06a8.15,8.15,0,0,0,5.54-3.61c1.52-2.12,2-4.16,1.32-6.07s-2.2-3.59-4.67-5a12.06,12.06,0,0,0-5.64-1.79"/><path class="cls-6" d="M147.76,407.08h-.31a2.75,2.75,0,0,0-1.66.83,3.12,3.12,0,0,0-.91,1.73,1.73,1.73,0,0,0,.4,1.56,1.39,1.39,0,0,0,1.05.5h.21l.14,0a2.9,2.9,0,0,0,1.67-.89,3.11,3.11,0,0,0,.94-1.67,1.73,1.73,0,0,0-.37-1.51,1.51,1.51,0,0,0-1.16-.53m1,9.28a3.09,3.09,0,0,1-.68-.09q-2-.42-4.6-3.29a10.36,10.36,0,0,1-2.85-5,4.6,4.6,0,0,1,1.51-4,4.43,4.43,0,0,1,2.79-1.42h.38a2.59,2.59,0,0,1,.68.09q2.06.45,4.59,3.28a10.22,10.22,0,0,1,2.81,5,5.12,5.12,0,0,1-4.28,5.42h-.35m-2.41-16.14a2.81,2.81,0,0,0-.41,0,1.2,1.2,0,0,0-.27,0,7.46,7.46,0,0,0-4.72,2.4,7.77,7.77,0,0,0-2.62,6.06,10.78,10.78,0,0,0,3,6.4c1.93,2.17,3.93,3.35,6,3.57l.4,0h.69a7.52,7.52,0,0,0,4.72-2.41,7.76,7.76,0,0,0,2.61-6.06,10.73,10.73,0,0,0-3-6.41c-1.94-2.16-3.94-3.34-6-3.56l-.4,0"/><path class="cls-6" d="M134,385.81h-.19a2.62,2.62,0,0,0-1.24.49,3.36,3.36,0,0,0-1.22,1.58,2.28,2.28,0,0,0,0,1.74,1.39,1.39,0,0,0,1.16.84h.37a2.77,2.77,0,0,0,1.34-.53,3.43,3.43,0,0,0,1.23-1.53,2.11,2.11,0,0,0,0-1.69,1.48,1.48,0,0,0-1.19-.89l-.26,0m.06,10.19a2.85,2.85,0,0,1-1.35-.37q-1.72-1-3.36-4.59a12.52,12.52,0,0,1-1.41-6,5.15,5.15,0,0,1,2.29-3.79,4.15,4.15,0,0,1,2.09-.83h.31a3.12,3.12,0,0,1,1.37.39c1.15.66,2.28,2.18,3.36,4.6a12.31,12.31,0,0,1,1.37,5.94,5.11,5.11,0,0,1-2.25,3.8,4.25,4.25,0,0,1-2.13.86h-.29m-.5-17.89H133a7,7,0,0,0-3.55,1.43,8.48,8.48,0,0,0-3.76,5.7,13.06,13.06,0,0,0,1.23,7.46q1.85,4.13,4.54,5.22a4.92,4.92,0,0,0,1.72.37h.49a7.18,7.18,0,0,0,3.56-1.42,8.52,8.52,0,0,0,3.75-5.72,13,13,0,0,0-1.23-7.48c-1.23-2.73-2.74-4.47-4.54-5.2a4.65,4.65,0,0,0-1.67-.37"/><polyline class="cls-6" points="129.43 350.62 118.57 355.65 118.85 357.62 122.95 355.72 125.57 373.22 127.64 372.26 131.78 368.04 131.44 365.79 127.61 369.64 125.35 354.6 129.73 352.57 129.43 350.62"/><path class="cls-6" d="M126.08,331.38h-.2l-.35.05a3,3,0,0,0-1.61,1.06,3.17,3.17,0,0,0-.8,1.82,1.58,1.58,0,0,0,.48,1.43,1.42,1.42,0,0,0,.9.34h.23a1.43,1.43,0,0,0,.39-.06,2.86,2.86,0,0,0,1.6-1,3,3,0,0,0,.78-1.74,1.73,1.73,0,0,0-.49-1.52,1.42,1.42,0,0,0-.93-.38m-2.6,11.28a2.22,2.22,0,0,1-2-1.44c-.57-1.21-.73-3.35-.46-6.41a19.17,19.17,0,0,1,1.67-6.92,5.22,5.22,0,0,1,3.42-2.85,2.93,2.93,0,0,1,.64-.1h.3a2.27,2.27,0,0,1,2.09,1.46c.57,1.25.72,3.38.45,6.41a19.06,19.06,0,0,1-1.66,6.86,5.22,5.22,0,0,1-3.41,2.89,5.74,5.74,0,0,1-.65.1h-.34m4.41-20h-.55a8.76,8.76,0,0,0-1.09.17,8.33,8.33,0,0,0-5.38,4.15,19.71,19.71,0,0,0-2.46,8.37c-.3,3.45,0,6,1,7.64a3.68,3.68,0,0,0,3.19,1.86h.56a7.39,7.39,0,0,0,1.07-.17,8.44,8.44,0,0,0,5.38-4.14,19.79,19.79,0,0,0,2.46-8.39c.32-3.46,0-6-1.05-7.65a3.68,3.68,0,0,0-3.17-1.84"/><path class="cls-6" d="M132.18,301.05H132a2.69,2.69,0,0,0-1.53.7,3.53,3.53,0,0,0-1.13,1.7,1.9,1.9,0,0,0,.11,1.62,1.36,1.36,0,0,0,1.22.68h.24a2.54,2.54,0,0,0,1.51-.65,3.31,3.31,0,0,0,1.09-1.63,2.12,2.12,0,0,0-.09-1.71,1.31,1.31,0,0,0-1.19-.71m-3.71,11.39a2.24,2.24,0,0,1-2.31-2.13c-.23-1.44.13-3.71,1.09-6.86a22.23,22.23,0,0,1,3.09-6.84,4.8,4.8,0,0,1,3.44-2.13h.4a2.23,2.23,0,0,1,2.3,2.17c.23,1.44-.13,3.73-1.08,6.83a21.79,21.79,0,0,1-3.09,6.8,4.85,4.85,0,0,1-3.42,2.16h-.42M135,292.27h-.45l-.26,0a7.69,7.69,0,0,0-5.3,3,23,23,0,0,0-4.14,8.19c-.12.39-.23.78-.33,1.16l-.28,1.18-.06.23a12.48,12.48,0,0,0-.16,5.69,3.67,3.67,0,0,0,3.77,3h.67a7.76,7.76,0,0,0,5.3-3,23,23,0,0,0,4.15-8.19c1.08-3.55,1.36-6.31.82-8.27a3.64,3.64,0,0,0-3.73-2.94"/><polyline class="cls-6" points="144.13 261.22 143.03 263.35 146.54 264.32 136.67 283.33 138.46 283.83 143.5 282.55 144.78 280.11 140.13 281.22 148.6 264.9 152.37 265.94 153.48 263.8 144.13 261.22"/><path class="cls-6" d="M162.93,242h-.19a3.36,3.36,0,0,0-.65.15,3.54,3.54,0,0,0-1.62,1.23,2.89,2.89,0,0,0-.65,1.77,1.48,1.48,0,0,0,.66,1.3,1.62,1.62,0,0,0,.82.26h.18a2.71,2.71,0,0,0,.55-.12,3.24,3.24,0,0,0,1.57-1.18,3.19,3.19,0,0,0,.71-1.83,1.4,1.4,0,0,0-1.38-1.57m-5.78,10.81a2.29,2.29,0,0,1-1.25-.4c-1-.66-1.32-1.8-.86-3.4a23.55,23.55,0,0,1,3.91-6.62,25.14,25.14,0,0,1,5.4-5.66,4.8,4.8,0,0,1,2.17-.83h.26a2.57,2.57,0,0,1,1.33.41c1,.67,1.32,1.82.83,3.43a23.44,23.44,0,0,1-3.89,6.61,24.51,24.51,0,0,1-5.37,5.59,4.81,4.81,0,0,1-2.23.87h-.3m10.23-19.18h-.47a7.16,7.16,0,0,0-3,1.05,24.64,24.64,0,0,0-6.78,6.52q-3.63,4.78-4.36,8.24t1.63,5a4.22,4.22,0,0,0,2.21.71h.49a7.08,7.08,0,0,0,3-1,24.37,24.37,0,0,0,6.8-6.54q3.62-4.77,4.35-8.22c.48-2.29-.07-4-1.62-5a4.29,4.29,0,0,0-2.24-.71"/><path class="cls-6" d="M186,216.46a.29.29,0,0,0-.13,0h-.11l-.12,0a3.19,3.19,0,0,0-1.74.88,3.28,3.28,0,0,0-1,1.68,1.79,1.79,0,0,0,.3,1.56,1.37,1.37,0,0,0,1.05.53h.23l.08,0a2.79,2.79,0,0,0,1.67-.84,3.48,3.48,0,0,0,1.06-1.74,1.68,1.68,0,0,0-.24-1.56,1.3,1.3,0,0,0-1.05-.5m-6.61,10.08a2.21,2.21,0,0,1-1.71-.84c-.77-1-.75-2.23,0-3.79a24.25,24.25,0,0,1,5-6,23.24,23.24,0,0,1,6.18-4.58,5.12,5.12,0,0,1,1.43-.37h.31a2.23,2.23,0,0,1,1.73.87c.77,1,.75,2.22,0,3.8a24.89,24.89,0,0,1-5,5.95,22.93,22.93,0,0,1-6.13,4.53,5.09,5.09,0,0,1-1.49.41h-.31m11.93-17.86a1.31,1.31,0,0,0-.28,0h-.25a6.67,6.67,0,0,0-1.78.39,23.33,23.33,0,0,0-7.62,5.16,23.92,23.92,0,0,0-5.82,7.54q-1.47,3.45.28,5.64a3.79,3.79,0,0,0,2.93,1.47h.49a7.56,7.56,0,0,0,1.79-.4,22.76,22.76,0,0,0,7.64-5.17,23.92,23.92,0,0,0,5.82-7.54q1.44-3.45-.3-5.62a3.71,3.71,0,0,0-2.9-1.47"/><polyline class="cls-6" points="219.67 186.24 217.65 187.54 218.96 190.97 201.04 202.63 201.71 204.35 205.33 206.66 207.63 205.17 204.34 203 219.72 192.97 221.12 196.65 223.12 195.34 219.67 186.24"/><path class="cls-6" d="M241.36,179.76h-.21a3.05,3.05,0,0,0-.85.22,3.44,3.44,0,0,0-1.5,1.28,2.69,2.69,0,0,0-.48,1.76,1.37,1.37,0,0,0,.8,1.2,1.31,1.31,0,0,0,.59.14h.21a2.74,2.74,0,0,0,.83-.21,3.62,3.62,0,0,0,1.57-1.31,2.52,2.52,0,0,0,.53-1.74,1.37,1.37,0,0,0-.84-1.2,2,2,0,0,0-.65-.14m-7,8.09a2.24,2.24,0,0,1-2.43-2.15,4.69,4.69,0,0,1,1.72-3.94,22.3,22.3,0,0,1,6.47-3.81,21,21,0,0,1,6-1.78l.31,0h.4a2.26,2.26,0,0,1,2.39,2.19,4.73,4.73,0,0,1-1.75,3.94,22.35,22.35,0,0,1-6.47,3.79,20.09,20.09,0,0,1-5.93,1.76l-.28,0c-.15,0-.29,0-.42,0m12.83-14.09h-.59a3.62,3.62,0,0,0-.46,0,19.88,19.88,0,0,0-6.27,1.74,22,22,0,0,0-7.78,5.08,7.54,7.54,0,0,0-2.31,6,3.65,3.65,0,0,0,3.43,3.62c.25,0,.51.05.79.06a4.17,4.17,0,0,0,.5,0l.48,0a20.53,20.53,0,0,0,6.28-1.75,21.62,21.62,0,0,0,7.75-5.07,7.54,7.54,0,0,0,2.32-6,3.64,3.64,0,0,0-3.42-3.62l-.72-.06"/><path class="cls-6" d="M270.81,170.59h-.19l-.31,0a3.07,3.07,0,0,0-1.65,1,3.18,3.18,0,0,0-.85,1.73,1.63,1.63,0,0,0,.44,1.46,1.48,1.48,0,0,0,1,.38h.2l.31,0a3.25,3.25,0,0,0,1.72-1,3,3,0,0,0,.88-1.7,1.54,1.54,0,0,0-1.52-1.85m-5.88,7.09a6.28,6.28,0,0,1-1.84-.29,2.36,2.36,0,0,1-1.67-2.86,5.17,5.17,0,0,1,2.47-3.69,18.41,18.41,0,0,1,6.69-2.38,27.3,27.3,0,0,1,3.22-.46l.7,0h.73a6,6,0,0,1,1.77.29,2.36,2.36,0,0,1,1.64,2.88,5.14,5.14,0,0,1-2.48,3.69,18.32,18.32,0,0,1-6.69,2.36,24.32,24.32,0,0,1-3.16.46c-.25,0-.49,0-.72,0h-.66m10.34-12.27h-.81l-.74,0a24.94,24.94,0,0,0-2.81.4,19.4,19.4,0,0,0-8.15,3.36,8.54,8.54,0,0,0-3.49,5.74q-.43,3.47,2.24,4.65a8.6,8.6,0,0,0,3.25.66h.79l.77,0a24.78,24.78,0,0,0,2.82-.4,19.2,19.2,0,0,0,8.15-3.38,8.47,8.47,0,0,0,3.47-5.73c.29-2.31-.45-3.87-2.23-4.65a8.66,8.66,0,0,0-3.26-.65"/><path class="cls-6" d="M299.41,168.31h-.27a2.6,2.6,0,0,0-1.43.59,3.41,3.41,0,0,0-1.15,1.61,2,2,0,0,0,0,1.63,1.39,1.39,0,0,0,1.26.72h.29a2.78,2.78,0,0,0,1.48-.59,3.29,3.29,0,0,0,1.19-1.57,1.88,1.88,0,0,0-.1-1.65,1.43,1.43,0,0,0-1.31-.73M297.49,175h-.34c-2.78-.13-4.71-.58-5.78-1.38a2.75,2.75,0,0,1-.85-3.41,5.34,5.34,0,0,1,3.07-3.26,11.21,11.21,0,0,1,3.67-.81l.89-.05c.48,0,1,0,1.52,0l.5,0c2.83.11,4.77.57,5.82,1.35a2.8,2.8,0,0,1,.81,3.44,5.34,5.34,0,0,1-3.1,3.26,11.55,11.55,0,0,1-3.68.8l-.95,0c-.5,0-1,0-1.58,0m3.17-11.57h-1.21l-.86,0h-.06l-.32,0A13.88,13.88,0,0,0,293,165a8.85,8.85,0,0,0-4.46,5.15c-.78,2.33-.48,4.15.93,5.42s3.69,2,6.81,2.13h1.61l.9,0a14,14,0,0,0,5.6-1.5,8.9,8.9,0,0,0,4.43-5.14c.8-2.35.51-4.17-.92-5.45s-3.68-2-6.79-2.09l-.41,0"/><polyline class="cls-6" points="317.19 170.44 316.04 172.52 315.47 177.66 317.48 178.32 318.06 173.59 331.56 178.02 329.1 182.44 330.86 183.01 336.95 172.07 335.19 171.5 332.9 175.6 317.19 170.44"/><polyline class="cls-6" points="341.63 179.68 340.1 181.59 338.4 186.83 340.06 188.03 341.68 183.2 352.76 191.21 349.54 195.24 350.98 196.28 358.98 186.3 357.54 185.25 354.52 189.01 341.63 179.68"/><polyline class="cls-6" points="361.39 195.44 359.58 197.06 356.83 202.14 358.05 203.81 360.61 199.15 368.7 210.33 364.86 213.74 365.92 215.19 375.43 206.72 374.37 205.27 370.8 208.45 361.39 195.44"/><path class="cls-6" d="M377.3,224.71h-.09a2.66,2.66,0,0,0-1.19.43,3.32,3.32,0,0,0-1.3,1.46,2.26,2.26,0,0,0-.15,1.71,1.48,1.48,0,0,0,1.1,1l.42.06h.16a2.37,2.37,0,0,0,1.09-.39,3.35,3.35,0,0,0,1.31-1.52,2.43,2.43,0,0,0,.14-1.78,1.35,1.35,0,0,0-1.07-.95,3,3,0,0,0-.42,0M377.12,235a2.77,2.77,0,0,1-1.58-.53c-1.08-.76-2.05-2.42-2.92-5a13.19,13.19,0,0,1-.88-6.18,5.17,5.17,0,0,1,2.47-3.71,4.19,4.19,0,0,1,1.9-.7h.32a2.75,2.75,0,0,1,1.48.51c1.07.75,2,2.4,2.93,5a13.06,13.06,0,0,1,.91,6.23,5.22,5.22,0,0,1-2.51,3.69,4.22,4.22,0,0,1-1.87.69h-.25m.15-18.38h-.5a7,7,0,0,0-3.18,1.16,8.58,8.58,0,0,0-4.07,5.54,13.87,13.87,0,0,0,.63,7.72c1,2.91,2.33,4.8,4,5.69a4.55,4.55,0,0,0,2,.54h.49a7,7,0,0,0,3.19-1.16,8.61,8.61,0,0,0,4.07-5.54,13.92,13.92,0,0,0-.63-7.71c-1-2.9-2.34-4.81-4-5.69a4.39,4.39,0,0,0-2-.55"/><path class="cls-6" d="M382.72,251.52h-.2a2.64,2.64,0,0,0-.73.17,3.5,3.5,0,0,0-1.52,1.21,2.74,2.74,0,0,0-.52,1.76,1.65,1.65,0,0,0,.74,1.35,1.63,1.63,0,0,0,.76.21h.19a1.92,1.92,0,0,0,.64-.15,3.19,3.19,0,0,0,1.52-1.26,2.93,2.93,0,0,0,.55-1.84,1.44,1.44,0,0,0-.74-1.26,1.61,1.61,0,0,0-.69-.18m-1.62,10.91a2.36,2.36,0,0,1-1.9-1.05c-.79-1.06-1.3-3-1.49-5.92a16.67,16.67,0,0,1,.64-6.71,5.36,5.36,0,0,1,3.09-3.28,4.12,4.12,0,0,1,1.19-.29h.31a2.35,2.35,0,0,1,1.87,1c.78,1,1.29,3,1.48,5.94a16.6,16.6,0,0,1-.64,6.76,5.39,5.39,0,0,1-3.1,3.26,4.08,4.08,0,0,1-1.16.26l-.14,0h-.15m2.7-19.52h-.51a6.6,6.6,0,0,0-2,.48,8.67,8.67,0,0,0-4.94,4.79,17.23,17.23,0,0,0-1.23,8.26c.23,3.3,1,5.63,2.3,7a3.83,3.83,0,0,0,2.76,1.24h.51a6.6,6.6,0,0,0,2-.48,8.68,8.68,0,0,0,4.94-4.79,17.24,17.24,0,0,0,1.22-8.26c-.21-3.29-1-5.61-2.28-7a3.81,3.81,0,0,0-2.77-1.25"/><polyline class="cls-6" points="384.08 272.16 382.02 272.49 377.19 275.57 376.79 278.05 381.24 275.27 378.54 291.83 374.19 292.54 373.84 294.69 384.66 292.96 384.66 292.95 385 290.81 380.94 291.46 384.08 272.16"/><path class="cls-6" d="M372.81,311.47h-.1a2.65,2.65,0,0,0-1.33.54,3.28,3.28,0,0,0-1.19,1.59,2.34,2.34,0,0,0-.05,1.74,1.31,1.31,0,0,0,1.16.84h.32a2.71,2.71,0,0,0,1.4-.6,3.54,3.54,0,0,0,1.23-1.64,2.09,2.09,0,0,0,0-1.68,1.35,1.35,0,0,0-1.21-.77l-.25,0m-3.6,11.28-.31,0a2.24,2.24,0,0,1-2.16-2.4c-.12-1.5.41-3.79,1.57-6.9a22.9,22.9,0,0,1,3.51-6.69,4.85,4.85,0,0,1,3.25-1.92l.2,0h.34a2.26,2.26,0,0,1,2.2,2.38c.12,1.48-.4,3.78-1.58,6.92a22.9,22.9,0,0,1-3.52,6.74,4.78,4.78,0,0,1-3.23,1.89h-.27m6.94-20.18h-.68a7.54,7.54,0,0,0-4.89,2.61,23.39,23.39,0,0,0-4.66,8c-1.32,3.53-1.81,6.33-1.43,8.37a3.67,3.67,0,0,0,3.59,3.34l.34,0c.11,0,.22,0,.34,0l.31,0a7.5,7.5,0,0,0,4.89-2.61,23.6,23.6,0,0,0,4.65-8c1.31-3.54,1.8-6.35,1.44-8.4a3.68,3.68,0,0,0-3.6-3.34h-.3"/><path class="cls-6" d="M358.56,341.44h-.23a2.4,2.4,0,0,0-.88.25,3.4,3.4,0,0,0-1.43,1.36,2.88,2.88,0,0,0-.45,1.84,1.3,1.3,0,0,0,.86,1.15,1.56,1.56,0,0,0,.52.11h.2a2.77,2.77,0,0,0,1-.29,3.66,3.66,0,0,0,1.49-1.43,2.57,2.57,0,0,0,.4-1.76,1.38,1.38,0,0,0-.9-1.12,1.4,1.4,0,0,0-.53-.11m-4.9,11.09a2.9,2.9,0,0,1-.91-.19c-1.17-.45-1.64-1.47-1.39-3.07s1.25-3.87,3-6.84a24.22,24.22,0,0,1,4.71-6.16,4.78,4.78,0,0,1,2.64-1.25H362a2.65,2.65,0,0,1,.92.19c1.18.45,1.65,1.46,1.42,3s-1.23,3.86-3,6.85a24.92,24.92,0,0,1-4.73,6.21,4.61,4.61,0,0,1-2.61,1.22h-.33m8.91-19.79h-.5a7.2,7.2,0,0,0-3.77,1.6,24.56,24.56,0,0,0-6,7.27c-2,3.39-3.08,6.2-3.22,8.44s.68,3.7,2.47,4.38a4.5,4.5,0,0,0,1.61.33h.51a7.15,7.15,0,0,0,3.76-1.61,24.56,24.56,0,0,0,6-7.25c2-3.39,3.08-6.21,3.22-8.44s-.67-3.71-2.46-4.4a4.76,4.76,0,0,0-1.61-.32"/><polyline class="cls-6" points="341.06 361.82 339.23 363.97 343.54 364.32 331.31 378.75 328.41 376.41 326.81 378.29 334.01 384.09 335.61 382.21 332.9 380.03 347.14 363.24 345.77 362.13 341.06 361.82"/><path class="cls-6" d="M314.39,393.58h-.25a2.83,2.83,0,0,0-1.59.73,3.61,3.61,0,0,0-1.16,1.68,1.88,1.88,0,0,0,.11,1.63,1.33,1.33,0,0,0,1.17.61h.24a3,3,0,0,0,1.69-.76,3.33,3.33,0,0,0,1.1-1.64,1.83,1.83,0,0,0-.18-1.6,1.31,1.31,0,0,0-1.13-.65m-6.64,9.86a2.13,2.13,0,0,1-1.84-1q-1-1.57.34-3.88a25,25,0,0,1,5.35-5.68,22.72,22.72,0,0,1,6.31-4.13,4.59,4.59,0,0,1,1.21-.27h.34a2.09,2.09,0,0,1,1.81,1c.69,1,.58,2.33-.31,3.87A24.8,24.8,0,0,1,315.6,399a22.65,22.65,0,0,1-6.35,4.18,4.24,4.24,0,0,1-1.18.25h-.32m12.31-17.37h-.5a7.92,7.92,0,0,0-1.35.25,22,22,0,0,0-7.82,4.66,24.12,24.12,0,0,0-6.24,7.23c-1.1,2.27-1.16,4.19-.14,5.77a3.68,3.68,0,0,0,3.11,1.78h.27l.26,0a6.82,6.82,0,0,0,1.34-.25,21.93,21.93,0,0,0,7.81-4.64,24,24,0,0,0,6.23-7.25c1.14-2.26,1.18-4.18.15-5.77a3.64,3.64,0,0,0-3.12-1.77"/><polyline class="cls-6" points="292.83 406.64 290.48 408 293.56 410.45 277.88 419.6 276.77 415.76 274.72 416.96 277.5 426.47 279.55 425.28 278.5 421.7 296.75 411.05 296.22 409.24 292.83 406.64"/><path class="cls-6" d="M257.65,426.64h-.19a2.72,2.72,0,0,0-.66.15,3.63,3.63,0,0,0-1.64,1.2,2.8,2.8,0,0,0-.66,1.75,1.37,1.37,0,0,0,.74,1.28,1.64,1.64,0,0,0,.78.22h.21a2.33,2.33,0,0,0,.68-.15,3.24,3.24,0,0,0,1.55-1.18,2.68,2.68,0,0,0,.6-1.75,1.42,1.42,0,0,0-.67-1.3,1.55,1.55,0,0,0-.74-.21m-6.78,7.87a4.49,4.49,0,0,1-.55-.05,2.29,2.29,0,0,1-2.17-2.43,4.92,4.92,0,0,1,2-3.87,20.87,20.87,0,0,1,6.58-3.35,22.17,22.17,0,0,1,5.25-1.3h.78a4.92,4.92,0,0,1,.56,0,2.26,2.26,0,0,1,2.2,2.39,4.94,4.94,0,0,1-2,3.89,21.24,21.24,0,0,1-6.59,3.35,21.55,21.55,0,0,1-5.34,1.31l-.42,0h-.33M263.1,421h-.58l-.51,0a25.13,25.13,0,0,0-13.29,5.79,7.9,7.9,0,0,0-2.69,5.94c.05,2.22,1.08,3.54,3.05,4a7.59,7.59,0,0,0,1.47.17h.61l.54,0a20.82,20.82,0,0,0,5.33-1.23,21.48,21.48,0,0,0,7.94-4.55,7.88,7.88,0,0,0,2.71-6c-.05-2.2-1.08-3.53-3.05-4a8.92,8.92,0,0,0-1.53-.18"/><path class="cls-6" d="M228.27,433.63H228l-.11,0a3.37,3.37,0,0,0-2.75,2.53,1.68,1.68,0,0,0,.36,1.53,1.58,1.58,0,0,0,1.13.49H227a3,3,0,0,0,1.68-.85,3.37,3.37,0,0,0,1-1.7,1.77,1.77,0,0,0-.31-1.53,1.39,1.39,0,0,0-1.07-.47m-5.16,7a7.63,7.63,0,0,1-2.79-.51,2.5,2.5,0,0,1-1.38-3.09,5.32,5.32,0,0,1,2.71-3.57,17.76,17.76,0,0,1,6.68-1.87c.51-.06,1-.11,1.46-.13s.72-.05,1.06-.06h1a7.25,7.25,0,0,1,2.72.5,2.48,2.48,0,0,1,1.41,3.06,5.23,5.23,0,0,1-2.68,3.58,17.52,17.52,0,0,1-6.69,1.88l-1.49.15-1,.06c-.33,0-.65,0-.94,0M232,428.72c-.32,0-.64,0-1,0l-1,0c-.38,0-.78.06-1.18.12a18,18,0,0,0-8.19,2.79,8.64,8.64,0,0,0-3.81,5.57c-.46,2.33.15,4,1.82,4.93a9,9,0,0,0,4.24,1h1l.6,0,.83-.06.74-.08a18.11,18.11,0,0,0,8.19-2.78,8.67,8.67,0,0,0,3.82-5.57q.69-3.5-1.81-4.94a9.15,9.15,0,0,0-4.27-1"/></g></g></g></g><g class="cls-2"><g class="cls-7"><polyline class="cls-6" points="323.01 405.71 320.53 406.94 316.13 412.31 317.14 415.1 321.24 410.23 327.98 428.92 322.72 431.55 323.61 433.99 336.66 427.46 335.78 425.03 330.87 427.48 323.01 405.71"/><path class="cls-6" d="M353.52,414.48a3.28,3.28,0,0,0-1.47.59,3.44,3.44,0,0,0-1.35,1.9,2.73,2.73,0,0,0,.25,2.14,2.26,2.26,0,0,0,1.65,1.13,2.89,2.89,0,0,0,.72,0,3.08,3.08,0,0,0,1.41-.59,3.6,3.6,0,0,0,1.43-1.94,2.58,2.58,0,0,0-.17-2.14,2.21,2.21,0,0,0-1.72-1.1,2.69,2.69,0,0,0-.75,0m-5.77,11.35a3.64,3.64,0,0,1-4-1.77,4.57,4.57,0,0,1,.3-5c1.09-1.8,3.32-3.89,6.67-6.24s6-3.71,8-4.05l.25,0a3.66,3.66,0,0,1,4,1.8c.88,1.5.76,3.17-.34,5s-3.34,3.89-6.66,6.23-5.91,3.63-7.9,4l-.32.05m10.92-20q-4.17.56-9.48,4.3-5.69,4-7.75,8.07a7.44,7.44,0,0,0-.05,7.51,6,6,0,0,0,6.35,3.07l.3,0q4.17-.57,9.51-4.31,5.68-4,7.73-8.07a7.47,7.47,0,0,0,.05-7.5,6,6,0,0,0-6.35-3.07l-.31,0"/><polyline class="cls-6" points="399.05 396.46 398.63 401.81 374.91 403.25 374.7 405.95 377.16 411.62 380.21 411.43 378.01 406.19 398.38 404.95 397.93 410.68 400.59 410.52 401.7 396.31 399.05 396.46"/><path class="cls-6" d="M421.09,410.18a2.7,2.7,0,0,0-.39.08,3.25,3.25,0,0,0-1.87,1.35,3.08,3.08,0,0,0-.57,2.17,2.35,2.35,0,0,0,1.08,1.73,2.61,2.61,0,0,0,1.83.4l.31-.05a3.09,3.09,0,0,0,1.88-1.3,2.92,2.92,0,0,0,.53-2.2,2.43,2.43,0,0,0-1.13-1.8,2.35,2.35,0,0,0-1.67-.38m5.19,10.68a5.29,5.29,0,0,1-1.13,0c-1.94-.11-4.4-1.13-7.39-3.08s-4.85-3.75-5.7-5.46a4.61,4.61,0,0,1,.4-5,4.94,4.94,0,0,1,3.49-2.27,5.46,5.46,0,0,1,1.08,0c1.91.09,4.38,1.13,7.39,3.1s4.93,3.78,5.77,5.47a4.66,4.66,0,0,1-.46,5,4.87,4.87,0,0,1-3.45,2.24m-10.1-18.71a8.36,8.36,0,0,0-5.87,3.8,7.72,7.72,0,0,0-1.08,7.67q1.56,3.86,6.53,7.1c3.41,2.22,6.51,3.28,9.33,3.16.29,0,.58,0,.86-.07a8.34,8.34,0,0,0,5.9-3.81,7.75,7.75,0,0,0,1.09-7.68q-1.56-3.84-6.52-7.07-5.12-3.33-9.33-3.17a9.06,9.06,0,0,0-.91.07"/><path class="cls-6" d="M441.46,436.73a3.31,3.31,0,0,0-2.55,1.94,2.93,2.93,0,0,0-.12,2.21,2.43,2.43,0,0,0,1.44,1.53,2.38,2.38,0,0,0,1.26.17,2.94,2.94,0,0,0,.86-.27,3.23,3.23,0,0,0,1.6-1.71,3.12,3.12,0,0,0,.11-2.3,2.29,2.29,0,0,0-1.41-1.45,2.42,2.42,0,0,0-1.19-.12m2,13.41a3.9,3.9,0,0,1-3.17-1q-2.1-1.8-3.93-7T435,433.82a5.28,5.28,0,0,1,3-4.32,5.1,5.1,0,0,1,1.57-.5,3.92,3.92,0,0,1,3.14,1q2.1,1.78,3.94,7.07t1.41,8.29a5.28,5.28,0,0,1-3,4.3,5.09,5.09,0,0,1-1.54.49m-3.74-24a9.16,9.16,0,0,0-7.56,7.2,19.22,19.22,0,0,0,1.12,10.2q2.07,6,5.36,8.22a6.37,6.37,0,0,0,4.62,1.15,8.31,8.31,0,0,0,2.6-.82,8.69,8.69,0,0,0,5-6.38,19.47,19.47,0,0,0-1.13-10.18q-2.07-6-5.35-8.23a6.36,6.36,0,0,0-4.63-1.16"/><polyline class="cls-6" points="445.79 461.84 439.56 464.19 438.81 467.33 444.55 465.22 439.52 486.13 434.12 485.51 433.46 488.24 446.87 489.79 447.53 487.06 442.48 486.48 448.34 462.13 445.79 461.84"/><polyline class="cls-6" points="427.89 497.73 425.85 500.33 431.52 501.11 417.85 518.55 413.7 515.35 411.92 517.63 422.21 525.59 423.99 523.31 420.12 520.32 436.03 500.01 434.08 498.5 427.89 497.73"/><path class="cls-6" d="M397.2,536.26a3.15,3.15,0,0,0-1.75.88,3.58,3.58,0,0,0-1.15,2.12,2.44,2.44,0,0,0,.51,2,2.19,2.19,0,0,0,1.9.78l.3,0a3.38,3.38,0,0,0,1.84-.91,3.25,3.25,0,0,0,1.07-2,2.49,2.49,0,0,0-.57-2,2.27,2.27,0,0,0-1.84-.83,1.63,1.63,0,0,0-.31,0m-5.26,12.29a3.58,3.58,0,0,1-3.42-1.29c-1.12-1.32-1.25-2.94-.41-4.87s2.77-4.3,5.76-7.1,5.42-4.48,7.37-5.14a6.76,6.76,0,0,1,1.22-.3,3.54,3.54,0,0,1,3.37,1.25,4.34,4.34,0,0,1,.46,4.86q-1.25,2.88-5.78,7.11t-7.41,5.2a7,7,0,0,1-1.16.28m10.35-21.63a9.15,9.15,0,0,0-1.18.24q-4.26,1.13-9.23,5.79c-3.43,3.19-5.61,6.2-6.58,9s-.6,5.26,1.1,7.24a6,6,0,0,0,5.69,2.19,8.65,8.65,0,0,0,1.19-.24c2.84-.76,5.9-2.69,9.22-5.78s5.61-6.2,6.59-9,.61-5.26-1.1-7.27a6,6,0,0,0-5.7-2.17"/><path class="cls-6" d="M366.18,562.62a3.21,3.21,0,0,0-1.5.66,3.7,3.7,0,0,0-1.35,2,2.46,2.46,0,0,0,.29,2.11,2.16,2.16,0,0,0,1.76,1,3.19,3.19,0,0,0,.62,0,3.29,3.29,0,0,0,1.59-.69,3.36,3.36,0,0,0,1.26-1.94,2.61,2.61,0,0,0-.34-2.11,2.21,2.21,0,0,0-1.72-1,2.49,2.49,0,0,0-.61,0m-5.56,11.73a3.61,3.61,0,0,1-3.8-1.63c-1-1.46-.92-3.11.12-5s3.16-4,6.4-6.51,5.77-3.9,7.76-4.36l.59-.11a3.61,3.61,0,0,1,3.8,1.6,4.48,4.48,0,0,1-.08,5c-1,1.85-3.15,4-6.41,6.53s-5.85,4-7.81,4.4c-.2,0-.39.08-.57.1m10.87-20.53-.2,0q-4.29.67-9.66,4.8-5.53,4.25-7.4,8.38t.3,7.44a6,6,0,0,0,6.3,2.78l.23,0c2.85-.45,6.06-2.06,9.63-4.8s6.16-5.62,7.42-8.38,1.16-5.24-.3-7.46a6,6,0,0,0-6.32-2.76"/><path class="cls-6" d="M333.05,585.83a3.17,3.17,0,0,0-1.29.51,3.61,3.61,0,0,0-1.51,1.89,2.61,2.61,0,0,0,.08,2.16,2.12,2.12,0,0,0,1.64,1.18,3,3,0,0,0,.89,0,3.31,3.31,0,0,0,1.34-.51,3.37,3.37,0,0,0,1.43-1.84,2.73,2.73,0,0,0-.14-2.16,2.21,2.21,0,0,0-1.59-1.22,3,3,0,0,0-.85,0M327.37,597h-.06a3.71,3.71,0,0,1-4.16-2,4.68,4.68,0,0,1,.59-5q1.78-2.66,6.9-5.93c3.34-2.15,6-3.35,8-3.62h0a3.7,3.7,0,0,1,4.18,1.94,4.66,4.66,0,0,1-.54,5q-1.76,2.64-6.91,5.95c-3.39,2.17-6.07,3.39-8,3.65m10.9-19.48a23.12,23.12,0,0,0-9.07,3.79q-5.82,3.75-8.06,7.73a7.56,7.56,0,0,0-.39,7.53A6,6,0,0,0,326.9,600l.87-.09a23.26,23.26,0,0,0,9.05-3.79q5.82-3.74,8.06-7.72a7.58,7.58,0,0,0,.41-7.55,6,6,0,0,0-6.16-3.41l-.86.09"/><polyline class="cls-6" points="305.75 598.73 302.92 600.3 307.32 603.63 288.38 614.16 286.3 609.19 283.82 610.57 289.01 622.9 291.49 621.53 289.53 616.89 311.58 604.63 310.6 602.28 305.75 598.73"/><path class="cls-6" d="M270,613.74a3,3,0,0,0-1.84,1,3.18,3.18,0,0,0-.84,2.15,2.63,2.63,0,0,0,.84,2,2.34,2.34,0,0,0,1.95.62h0a3.43,3.43,0,0,0,2.84-3.18,2.45,2.45,0,0,0-.8-1.91,2.52,2.52,0,0,0-2-.69l-.17,0m4.65,11.68a5.17,5.17,0,0,1-1.74-.09c-1.84-.39-4.08-1.82-6.71-4.27s-4.22-4.59-4.77-6.43A5.33,5.33,0,0,1,265.6,608a5,5,0,0,1,1.79.09c1.86.42,4.09,1.83,6.7,4.27s4.15,4.53,4.72,6.39a5.3,5.3,0,0,1-4.13,6.7m-8.84-20.35a8.23,8.23,0,0,0-5.06,2.86,8.08,8.08,0,0,0-2.18,7.58q.94,4.13,5.27,8.16t8.57,4.65a8,8,0,0,0,2.08,0,8.23,8.23,0,0,0,5.05-2.87,8.12,8.12,0,0,0,2.17-7.58q-.94-4.12-5.28-8.17t-8.56-4.64a8.33,8.33,0,0,0-2.06,0"/><polyline class="cls-6" points="251.28 571.93 239.11 580.37 240.38 582.59 244.95 579.41 256.26 599.14 258.57 597.53 262.18 591.63 260.73 589.1 257.35 594.49 247.65 577.54 252.55 574.14 251.28 571.93"/><path class="cls-6" d="M234,551.9a2.66,2.66,0,0,0-1.21.48,3.18,3.18,0,0,0-1.35,1.91,2.9,2.9,0,0,0,.23,2.23,2.24,2.24,0,0,0,1.64,1.18,2.83,2.83,0,0,0,.82,0,3.09,3.09,0,0,0,1.32-.53,3.27,3.27,0,0,0,1.37-1.85,2.72,2.72,0,0,0-.23-2.15,2.42,2.42,0,0,0-1.68-1.25,2.55,2.55,0,0,0-.91,0m3,13a4.17,4.17,0,0,1-2.7-.59c-1.59-.92-3.28-3-5-6.19s-2.67-5.79-2.69-7.78a5.19,5.19,0,0,1,2.42-4.64,4.72,4.72,0,0,1,2.08-.85,4.13,4.13,0,0,1,2.74.62c1.61.93,3.29,3,5.05,6.16s2.62,5.71,2.64,7.74a5.18,5.18,0,0,1-2.36,4.67,4.92,4.92,0,0,1-2.13.86M231.32,542a8.28,8.28,0,0,0-3.54,1.43,8.63,8.63,0,0,0-4.05,7,18.42,18.42,0,0,0,2.69,9.65q3,5.43,6.67,7.08a6.79,6.79,0,0,0,3.8.61,8.29,8.29,0,0,0,3.55-1.45,8.61,8.61,0,0,0,4-7,18.2,18.2,0,0,0-2.69-9.66c-2-3.62-4.23-6-6.67-7.08a6.79,6.79,0,0,0-3.8-.59"/><polyline class="cls-6" points="216.85 507.93 204.37 515.82 205.53 518.11 210.22 515.14 220.5 535.54 222.88 534.04 226.74 528.29 225.42 525.67 221.81 530.92 212.97 513.4 218 510.22 216.85 507.93"/><path class="cls-6" d="M205,485.79a4.85,4.85,0,0,0-.49.11,3.22,3.22,0,0,0-1.8,1.48,3.27,3.27,0,0,0-.45,2.3,2.32,2.32,0,0,0,1.14,1.69,2.37,2.37,0,0,0,1.55.29,2.91,2.91,0,0,0,.55-.13,3.17,3.17,0,0,0,1.79-1.41,3,3,0,0,0,.44-2.2,2.47,2.47,0,0,0-1.16-1.78,2.29,2.29,0,0,0-1.57-.35m.89,14a3.73,3.73,0,0,1-3.55-1.47c-1.18-1.41-2.08-4-2.75-7.75s-.69-6.61-.11-8.6a5.29,5.29,0,0,1,3.58-3.86,4.44,4.44,0,0,1,.9-.2,3.75,3.75,0,0,1,3.57,1.5c1.17,1.44,2.09,4,2.74,7.74s.68,6.51.1,8.54a5.3,5.3,0,0,1-3.55,3.89,5.6,5.6,0,0,1-.93.21m-1.76-24.66a9.28,9.28,0,0,0-1.53.35,8.63,8.63,0,0,0-5.76,5.66,20.68,20.68,0,0,0-.44,10.45q1.11,6.36,3.94,9.17a6.16,6.16,0,0,0,5.4,1.84,8.37,8.37,0,0,0,1.55-.35,8.68,8.68,0,0,0,5.75-5.66,20.53,20.53,0,0,0,.44-10.47q-1.11-6.36-3.94-9.16a6.19,6.19,0,0,0-5.41-1.83"/><polyline class="cls-6" points="200.12 437.62 199.63 440.36 204.74 440.6 200.35 465.08 202.94 465.2 209.07 462.46 209.63 459.31 203.97 461.77 207.74 440.76 213.22 441.02 213.72 438.27 200.12 437.62"/><path class="cls-6" d="M219.36,412.89l-.45.09a3.52,3.52,0,0,0-1.94,1.41,3.12,3.12,0,0,0-.62,2.18,2.42,2.42,0,0,0,2.73,2.16,2,2,0,0,0,.34-.06,3.34,3.34,0,0,0,1.88-1.35,3.44,3.44,0,0,0,.67-2.27,2.25,2.25,0,0,0-2.61-2.16m-4.51,13.24a3.67,3.67,0,0,1-2.62-.64,4,4,0,0,1-1.56-4.46q.59-3,4.19-8.08t6.27-6.67a5.71,5.71,0,0,1,2.14-.8,3.73,3.73,0,0,1,2.69.66c1.43.95,1.93,2.45,1.52,4.48s-1.8,4.7-4.18,8.05-4.42,5.52-6.24,6.61a5.87,5.87,0,0,1-2.21.85m8.27-23.49a8.45,8.45,0,0,0-2.83.95c-2.67,1.4-5.33,4-7.95,7.66s-4.24,7.18-4.58,10.08a6.44,6.44,0,0,0,2.76,6.57A6.34,6.34,0,0,0,215,429a8.55,8.55,0,0,0,2.83-1q4-2.08,8-7.66,4.08-5.75,4.55-10.09a6.43,6.43,0,0,0-2.74-6.55,6.33,6.33,0,0,0-4.53-1.12"/><path class="cls-6" d="M248.35,388.14a3.35,3.35,0,0,0-1,.31,3.28,3.28,0,0,0-1.62,1.66,2.87,2.87,0,0,0-.14,2.2,2.27,2.27,0,0,0,1.38,1.45,2.55,2.55,0,0,0,1.16.12,3.18,3.18,0,0,0,1-.32,3.64,3.64,0,0,0,1.72-1.7,2.76,2.76,0,0,0,.19-2.2,2.16,2.16,0,0,0-1.45-1.41,2.67,2.67,0,0,0-1.22-.11m-5.56,10.29a7.6,7.6,0,0,1-1.13.08,3.62,3.62,0,0,1-3.82-2.51,4.88,4.88,0,0,1,1.15-5q2.06-2.43,7.49-5.08a25.47,25.47,0,0,1,7.21-2.54,7.43,7.43,0,0,1,1.11-.08,3.68,3.68,0,0,1,3.8,2.56,4.9,4.9,0,0,1-1.2,5c-1.39,1.62-3.87,3.31-7.47,5.06a24.87,24.87,0,0,1-7.14,2.5M253,380.48a25.31,25.31,0,0,0-7.51,2.49q-6.16,3-8.83,6.72a7.86,7.86,0,0,0-1.35,7.57,5.89,5.89,0,0,0,5.55,4.26,13.3,13.3,0,0,0,2.65-.09,25.31,25.31,0,0,0,7.51-2.49c4.1-2,7-4.24,8.82-6.72a7.91,7.91,0,0,0,1.35-7.56,5.91,5.91,0,0,0-5.56-4.28,13.13,13.13,0,0,0-2.63.1"/><path class="cls-6" d="M283.39,382.46a3,3,0,0,0-1.33.54,3.39,3.39,0,0,0-1.33,1.91A2.61,2.61,0,0,0,281,387a2.22,2.22,0,0,0,1.69,1.1,2.7,2.7,0,0,0,.85,0,3.41,3.41,0,0,0,2.75-2.39,2.57,2.57,0,0,0-.29-2.14,2.4,2.4,0,0,0-1.76-1.14,2.75,2.75,0,0,0-.81,0m5.17,8.55a24.16,24.16,0,0,1-6.63-.26c-3.59-.54-6.11-1.41-7.57-2.59a4,4,0,0,1-1.43-4.52,5.3,5.3,0,0,1,3.64-3.8,9.75,9.75,0,0,1,1.74-.39,23.92,23.92,0,0,1,6.64.27c3.67.56,6.21,1.41,7.64,2.58a4,4,0,0,1,1.38,4.56,5.29,5.29,0,0,1-3.67,3.76,10.16,10.16,0,0,1-1.74.39m-9.38-14.77a13.43,13.43,0,0,0-3.63,1,8.8,8.8,0,0,0-5.24,6q-1.2,4.36,1.73,7.14c2,1.84,4.95,3.08,9,3.69a23.2,23.2,0,0,0,6.65.17,13.85,13.85,0,0,0,3.65-1,8.8,8.8,0,0,0,5.23-6c.8-2.92.22-5.31-1.73-7.15s-4.94-3.07-9-3.69a23.75,23.75,0,0,0-6.68-.16"/></g></g></svg>